<mxfile host="Electron" modified="2024-06-29T13:11:49.032Z" agent="Mozilla/5.0 (Windows NT 10.0; Win64; x64) AppleWebKit/537.36 (KHTML, like Gecko) draw.io/24.6.1 Chrome/124.0.6367.207 Electron/30.0.6 Safari/537.36" etag="WgCX-PlGYs9d0Ml0xSkJ" version="24.6.1" type="device">
  <diagram id="R2lEEEUBdFMjLlhIrx00" name="Page-1">
    <mxGraphModel dx="3004" dy="1310" grid="0" gridSize="10" guides="1" tooltips="1" connect="1" arrows="1" fold="1" page="1" pageScale="1" pageWidth="3300" pageHeight="4681" math="0" shadow="0" extFonts="Permanent Marker^https://fonts.googleapis.com/css?family=Permanent+Marker">
      <root>
        <mxCell id="0" />
        <mxCell id="1" parent="0" />
        <mxCell id="vcjG7mU_yD_2sY2w4m83-25" style="edgeStyle=orthogonalEdgeStyle;rounded=0;orthogonalLoop=1;jettySize=auto;html=1;entryX=0.5;entryY=0;entryDx=0;entryDy=0;endArrow=none;endFill=0;startArrow=ERmandOne;startFill=0;fontFamily=Times New Roman;strokeWidth=2;" edge="1" parent="1" source="vcjG7mU_yD_2sY2w4m83-1" target="vcjG7mU_yD_2sY2w4m83-24">
          <mxGeometry relative="1" as="geometry" />
        </mxCell>
        <mxCell id="vcjG7mU_yD_2sY2w4m83-28" style="edgeStyle=orthogonalEdgeStyle;rounded=0;orthogonalLoop=1;jettySize=auto;html=1;entryX=0;entryY=0.5;entryDx=0;entryDy=0;endArrow=none;endFill=0;startArrow=ERmandOne;startFill=0;fontFamily=Times New Roman;strokeWidth=2;" edge="1" parent="1" source="vcjG7mU_yD_2sY2w4m83-1" target="vcjG7mU_yD_2sY2w4m83-27">
          <mxGeometry relative="1" as="geometry" />
        </mxCell>
        <mxCell id="vcjG7mU_yD_2sY2w4m83-75" style="edgeStyle=orthogonalEdgeStyle;rounded=0;orthogonalLoop=1;jettySize=auto;html=1;exitX=0.75;exitY=0;exitDx=0;exitDy=0;entryX=0.5;entryY=1;entryDx=0;entryDy=0;endArrow=none;endFill=0;" edge="1" parent="1" source="vcjG7mU_yD_2sY2w4m83-1" target="vcjG7mU_yD_2sY2w4m83-68">
          <mxGeometry relative="1" as="geometry">
            <Array as="points">
              <mxPoint x="1747" y="684" />
              <mxPoint x="1706" y="684" />
            </Array>
          </mxGeometry>
        </mxCell>
        <mxCell id="vcjG7mU_yD_2sY2w4m83-76" style="edgeStyle=orthogonalEdgeStyle;rounded=0;orthogonalLoop=1;jettySize=auto;html=1;exitX=0.5;exitY=0;exitDx=0;exitDy=0;entryX=0.5;entryY=1;entryDx=0;entryDy=0;endArrow=none;endFill=0;" edge="1" parent="1" source="vcjG7mU_yD_2sY2w4m83-1" target="vcjG7mU_yD_2sY2w4m83-67">
          <mxGeometry relative="1" as="geometry">
            <Array as="points">
              <mxPoint x="1717" y="710" />
              <mxPoint x="1580" y="710" />
            </Array>
          </mxGeometry>
        </mxCell>
        <mxCell id="vcjG7mU_yD_2sY2w4m83-77" style="edgeStyle=orthogonalEdgeStyle;rounded=0;orthogonalLoop=1;jettySize=auto;html=1;exitX=0.372;exitY=0.008;exitDx=0;exitDy=0;endArrow=none;endFill=0;exitPerimeter=0;entryX=1;entryY=1;entryDx=0;entryDy=0;" edge="1" parent="1" source="vcjG7mU_yD_2sY2w4m83-1" target="vcjG7mU_yD_2sY2w4m83-69">
          <mxGeometry relative="1" as="geometry">
            <mxPoint x="1686.51" y="827.4999999999999" as="sourcePoint" />
            <mxPoint x="1528" y="702" as="targetPoint" />
            <Array as="points">
              <mxPoint x="1702" y="828" />
              <mxPoint x="1702" y="828" />
              <mxPoint x="1702" y="722" />
              <mxPoint x="1528" y="722" />
              <mxPoint x="1528" y="690" />
            </Array>
          </mxGeometry>
        </mxCell>
        <mxCell id="vcjG7mU_yD_2sY2w4m83-78" style="edgeStyle=orthogonalEdgeStyle;rounded=0;orthogonalLoop=1;jettySize=auto;html=1;entryX=1;entryY=1;entryDx=0;entryDy=0;endArrow=none;endFill=0;exitX=0.25;exitY=0;exitDx=0;exitDy=0;" edge="1" parent="1" source="vcjG7mU_yD_2sY2w4m83-1" target="vcjG7mU_yD_2sY2w4m83-70">
          <mxGeometry relative="1" as="geometry">
            <mxPoint x="1667.71" y="822.5" as="sourcePoint" />
            <mxPoint x="1459.9983814372183" y="730.4171243567637" as="targetPoint" />
            <Array as="points">
              <mxPoint x="1687" y="828" />
              <mxPoint x="1686" y="828" />
              <mxPoint x="1686" y="739" />
            </Array>
          </mxGeometry>
        </mxCell>
        <mxCell id="vcjG7mU_yD_2sY2w4m83-79" style="edgeStyle=orthogonalEdgeStyle;rounded=0;orthogonalLoop=1;jettySize=auto;html=1;exitX=0;exitY=0.25;exitDx=0;exitDy=0;entryX=1;entryY=1;entryDx=0;entryDy=0;endArrow=none;endFill=0;" edge="1" parent="1" source="vcjG7mU_yD_2sY2w4m83-1" target="vcjG7mU_yD_2sY2w4m83-71">
          <mxGeometry relative="1" as="geometry">
            <Array as="points">
              <mxPoint x="1643" y="851" />
              <mxPoint x="1643" y="806" />
            </Array>
          </mxGeometry>
        </mxCell>
        <mxCell id="vcjG7mU_yD_2sY2w4m83-80" style="edgeStyle=orthogonalEdgeStyle;rounded=0;orthogonalLoop=1;jettySize=auto;html=1;exitX=0;exitY=0.5;exitDx=0;exitDy=0;entryX=1;entryY=0.5;entryDx=0;entryDy=0;endArrow=none;endFill=0;" edge="1" parent="1" source="vcjG7mU_yD_2sY2w4m83-1" target="vcjG7mU_yD_2sY2w4m83-72">
          <mxGeometry relative="1" as="geometry">
            <Array as="points">
              <mxPoint x="1637" y="866" />
              <mxPoint x="1637" y="856" />
            </Array>
          </mxGeometry>
        </mxCell>
        <mxCell id="vcjG7mU_yD_2sY2w4m83-81" style="edgeStyle=orthogonalEdgeStyle;rounded=0;orthogonalLoop=1;jettySize=auto;html=1;exitX=0;exitY=0.75;exitDx=0;exitDy=0;entryX=1;entryY=0;entryDx=0;entryDy=0;endArrow=none;endFill=0;" edge="1" parent="1" source="vcjG7mU_yD_2sY2w4m83-1" target="vcjG7mU_yD_2sY2w4m83-73">
          <mxGeometry relative="1" as="geometry" />
        </mxCell>
        <mxCell id="vcjG7mU_yD_2sY2w4m83-82" style="edgeStyle=orthogonalEdgeStyle;rounded=0;orthogonalLoop=1;jettySize=auto;html=1;entryX=1;entryY=0.5;entryDx=0;entryDy=0;endArrow=none;endFill=0;exitX=0.001;exitY=0.868;exitDx=0;exitDy=0;exitPerimeter=0;" edge="1" parent="1" source="vcjG7mU_yD_2sY2w4m83-1" target="vcjG7mU_yD_2sY2w4m83-74">
          <mxGeometry relative="1" as="geometry">
            <mxPoint x="1651" y="895" as="sourcePoint" />
            <Array as="points">
              <mxPoint x="1517" y="888" />
              <mxPoint x="1517" y="945" />
            </Array>
          </mxGeometry>
        </mxCell>
        <mxCell id="vcjG7mU_yD_2sY2w4m83-1" value="&lt;p class=&quot;MsoNormal&quot; style=&quot;font-size: 18px;&quot;&gt;&lt;span style=&quot;font-size: 18px;&quot;&gt;&lt;span style=&quot;font-size: 18px; background: rgb(255, 255, 255);&quot;&gt;Patient&lt;/span&gt;&lt;/span&gt;&lt;/p&gt;" style="rounded=1;whiteSpace=wrap;html=1;fontFamily=Times New Roman;fontStyle=0;fontSize=18;" vertex="1" parent="1">
          <mxGeometry x="1657" y="836" width="120" height="60" as="geometry" />
        </mxCell>
        <mxCell id="vcjG7mU_yD_2sY2w4m83-31" style="edgeStyle=orthogonalEdgeStyle;rounded=0;orthogonalLoop=1;jettySize=auto;html=1;exitX=0;exitY=0.5;exitDx=0;exitDy=0;startArrow=ERmandOne;startFill=0;endArrow=none;endFill=0;fontFamily=Times New Roman;strokeWidth=2;" edge="1" parent="1" source="vcjG7mU_yD_2sY2w4m83-2" target="vcjG7mU_yD_2sY2w4m83-30">
          <mxGeometry relative="1" as="geometry" />
        </mxCell>
        <mxCell id="vcjG7mU_yD_2sY2w4m83-34" style="edgeStyle=orthogonalEdgeStyle;rounded=0;orthogonalLoop=1;jettySize=auto;html=1;entryX=0;entryY=0.5;entryDx=0;entryDy=0;endArrow=none;endFill=0;startArrow=ERmandOne;startFill=0;fontFamily=Times New Roman;strokeWidth=2;" edge="1" parent="1" source="vcjG7mU_yD_2sY2w4m83-2" target="vcjG7mU_yD_2sY2w4m83-33">
          <mxGeometry relative="1" as="geometry" />
        </mxCell>
        <mxCell id="vcjG7mU_yD_2sY2w4m83-2" value="&lt;p class=&quot;MsoNormal&quot; style=&quot;font-size: 18px;&quot;&gt;&lt;span style=&quot;font-size: 18px;&quot;&gt;&lt;span style=&quot;font-size: 18px; background: rgb(255, 255, 255);&quot;&gt;Department&lt;/span&gt;&lt;/span&gt;&lt;/p&gt;" style="rounded=1;whiteSpace=wrap;html=1;fontFamily=Times New Roman;fontStyle=0;fontSize=18;" vertex="1" parent="1">
          <mxGeometry x="1347" y="1551" width="120" height="60" as="geometry" />
        </mxCell>
        <mxCell id="vcjG7mU_yD_2sY2w4m83-3" value="&lt;p class=&quot;MsoNormal&quot; style=&quot;font-size: 18px;&quot;&gt;&lt;span style=&quot;font-size: 18px;&quot;&gt;&lt;span style=&quot;font-size: 18px; background: rgb(255, 255, 255);&quot;&gt;MedicalExamination_TreatmentDetails&lt;/span&gt;&lt;/span&gt;&lt;/p&gt;" style="rounded=1;whiteSpace=wrap;html=1;fontFamily=Times New Roman;fontStyle=0;fontSize=18;" vertex="1" parent="1">
          <mxGeometry x="2204" y="983" width="314" height="79" as="geometry" />
        </mxCell>
        <mxCell id="vcjG7mU_yD_2sY2w4m83-94" style="edgeStyle=orthogonalEdgeStyle;rounded=0;orthogonalLoop=1;jettySize=auto;html=1;exitX=0;exitY=0.25;exitDx=0;exitDy=0;entryX=1;entryY=0.5;entryDx=0;entryDy=0;endArrow=none;endFill=0;" edge="1" parent="1" source="vcjG7mU_yD_2sY2w4m83-4" target="vcjG7mU_yD_2sY2w4m83-84">
          <mxGeometry relative="1" as="geometry">
            <Array as="points">
              <mxPoint x="1644" y="1077" />
              <mxPoint x="1644" y="988" />
            </Array>
          </mxGeometry>
        </mxCell>
        <mxCell id="vcjG7mU_yD_2sY2w4m83-96" style="edgeStyle=orthogonalEdgeStyle;rounded=0;orthogonalLoop=1;jettySize=auto;html=1;exitX=0;exitY=0.5;exitDx=0;exitDy=0;entryX=1;entryY=0.5;entryDx=0;entryDy=0;endArrow=none;endFill=0;" edge="1" parent="1" source="vcjG7mU_yD_2sY2w4m83-4" target="vcjG7mU_yD_2sY2w4m83-87">
          <mxGeometry relative="1" as="geometry">
            <Array as="points">
              <mxPoint x="1627" y="1092" />
              <mxPoint x="1627" y="1043" />
            </Array>
          </mxGeometry>
        </mxCell>
        <mxCell id="vcjG7mU_yD_2sY2w4m83-97" style="edgeStyle=orthogonalEdgeStyle;rounded=0;orthogonalLoop=1;jettySize=auto;html=1;entryX=1;entryY=0.5;entryDx=0;entryDy=0;endArrow=none;endFill=0;exitX=-0.003;exitY=0.628;exitDx=0;exitDy=0;exitPerimeter=0;" edge="1" parent="1" source="vcjG7mU_yD_2sY2w4m83-4" target="vcjG7mU_yD_2sY2w4m83-88">
          <mxGeometry relative="1" as="geometry">
            <mxPoint x="1639" y="1104" as="sourcePoint" />
            <Array as="points">
              <mxPoint x="1635" y="1100" />
              <mxPoint x="1567" y="1100" />
              <mxPoint x="1567" y="1092" />
            </Array>
          </mxGeometry>
        </mxCell>
        <mxCell id="vcjG7mU_yD_2sY2w4m83-99" style="edgeStyle=orthogonalEdgeStyle;rounded=0;orthogonalLoop=1;jettySize=auto;html=1;exitX=1;exitY=0.25;exitDx=0;exitDy=0;entryX=0;entryY=1;entryDx=0;entryDy=0;endArrow=none;endFill=0;" edge="1" parent="1" source="vcjG7mU_yD_2sY2w4m83-4" target="vcjG7mU_yD_2sY2w4m83-90">
          <mxGeometry relative="1" as="geometry">
            <Array as="points">
              <mxPoint x="1790" y="1077" />
              <mxPoint x="1790" y="1018" />
            </Array>
          </mxGeometry>
        </mxCell>
        <mxCell id="vcjG7mU_yD_2sY2w4m83-100" style="edgeStyle=orthogonalEdgeStyle;rounded=0;orthogonalLoop=1;jettySize=auto;html=1;entryX=0;entryY=0.5;entryDx=0;entryDy=0;exitX=0.999;exitY=0.346;exitDx=0;exitDy=0;exitPerimeter=0;endArrow=none;endFill=0;" edge="1" parent="1" source="vcjG7mU_yD_2sY2w4m83-4" target="vcjG7mU_yD_2sY2w4m83-91">
          <mxGeometry relative="1" as="geometry">
            <mxPoint x="1794" y="1099" as="sourcePoint" />
            <Array as="points">
              <mxPoint x="1797" y="1083" />
              <mxPoint x="1797" y="1057" />
            </Array>
          </mxGeometry>
        </mxCell>
        <mxCell id="vcjG7mU_yD_2sY2w4m83-101" style="edgeStyle=orthogonalEdgeStyle;rounded=0;orthogonalLoop=1;jettySize=auto;html=1;exitX=1;exitY=0.5;exitDx=0;exitDy=0;entryX=0;entryY=0.5;entryDx=0;entryDy=0;endArrow=none;endFill=0;" edge="1" parent="1" source="vcjG7mU_yD_2sY2w4m83-4" target="vcjG7mU_yD_2sY2w4m83-92">
          <mxGeometry relative="1" as="geometry">
            <Array as="points">
              <mxPoint x="1877" y="1092" />
              <mxPoint x="1877" y="1106" />
            </Array>
          </mxGeometry>
        </mxCell>
        <mxCell id="vcjG7mU_yD_2sY2w4m83-4" value="&lt;p class=&quot;MsoNormal&quot; style=&quot;font-size: 18px;&quot;&gt;&lt;span style=&quot;font-size: 18px;&quot;&gt;&lt;span style=&quot;font-size: 18px; background: rgb(255, 255, 255);&quot;&gt;Appointment&lt;/span&gt;&lt;/span&gt;&lt;/p&gt;" style="rounded=1;whiteSpace=wrap;html=1;fontFamily=Times New Roman;fontStyle=0;fontSize=18;" vertex="1" parent="1">
          <mxGeometry x="1657" y="1062" width="120" height="60" as="geometry" />
        </mxCell>
        <mxCell id="vcjG7mU_yD_2sY2w4m83-6" value="&lt;p class=&quot;MsoNormal&quot; style=&quot;font-size: 18px;&quot;&gt;&lt;span style=&quot;font-size: 18px;&quot;&gt;&lt;span style=&quot;font-size: 18px; background: rgb(255, 255, 255);&quot;&gt;PrescriptionDetail&lt;/span&gt;&lt;/span&gt;&lt;/p&gt;" style="rounded=1;whiteSpace=wrap;html=1;fontFamily=Times New Roman;fontStyle=0;fontSize=18;" vertex="1" parent="1">
          <mxGeometry x="2575" y="613" width="152" height="70" as="geometry" />
        </mxCell>
        <mxCell id="vcjG7mU_yD_2sY2w4m83-7" value="&lt;p class=&quot;MsoNormal&quot; style=&quot;font-size: 18px;&quot;&gt;&lt;span style=&quot;font-size: 18px;&quot;&gt;&lt;span style=&quot;font-size: 18px; background: rgb(255, 255, 255);&quot;&gt;StaffSchedule&lt;/span&gt;&lt;/span&gt;&lt;/p&gt;" style="rounded=1;whiteSpace=wrap;html=1;fontFamily=Times New Roman;fontStyle=0;fontSize=18;" vertex="1" parent="1">
          <mxGeometry x="993" y="1731" width="120" height="60" as="geometry" />
        </mxCell>
        <mxCell id="vcjG7mU_yD_2sY2w4m83-46" style="edgeStyle=orthogonalEdgeStyle;rounded=0;orthogonalLoop=1;jettySize=auto;html=1;endArrow=none;endFill=0;startArrow=ERmandOne;startFill=0;fontFamily=Times New Roman;strokeWidth=2;entryX=0.5;entryY=0;entryDx=0;entryDy=0;" edge="1" parent="1" target="vcjG7mU_yD_2sY2w4m83-45">
          <mxGeometry relative="1" as="geometry">
            <mxPoint x="1717.5384615384614" y="1394" as="sourcePoint" />
            <mxPoint x="1690" y="1741" as="targetPoint" />
          </mxGeometry>
        </mxCell>
        <mxCell id="vcjG7mU_yD_2sY2w4m83-49" style="edgeStyle=orthogonalEdgeStyle;rounded=0;orthogonalLoop=1;jettySize=auto;html=1;entryX=0.5;entryY=1;entryDx=0;entryDy=0;endArrow=none;endFill=0;startArrow=ERmandOne;startFill=0;fontFamily=Times New Roman;strokeWidth=2;" edge="1" parent="1" source="vcjG7mU_yD_2sY2w4m83-8" target="vcjG7mU_yD_2sY2w4m83-48">
          <mxGeometry relative="1" as="geometry" />
        </mxCell>
        <mxCell id="vcjG7mU_yD_2sY2w4m83-52" style="edgeStyle=orthogonalEdgeStyle;rounded=0;orthogonalLoop=1;jettySize=auto;html=1;entryX=0;entryY=0.5;entryDx=0;entryDy=0;startArrow=ERmandOne;startFill=0;endArrow=none;endFill=0;fontFamily=Times New Roman;exitX=0.631;exitY=1.001;exitDx=0;exitDy=0;strokeWidth=2;exitPerimeter=0;" edge="1" parent="1" source="vcjG7mU_yD_2sY2w4m83-8" target="vcjG7mU_yD_2sY2w4m83-51">
          <mxGeometry relative="1" as="geometry" />
        </mxCell>
        <mxCell id="vcjG7mU_yD_2sY2w4m83-8" value="&lt;p class=&quot;MsoNormal&quot; style=&quot;font-size: 18px;&quot;&gt;&lt;span style=&quot;font-size: 18px;&quot;&gt;&lt;span style=&quot;font-size: 18px; background: rgb(255, 255, 255);&quot;&gt;Staff&lt;/span&gt;&lt;/span&gt;&lt;/p&gt;" style="rounded=1;whiteSpace=wrap;html=1;fontFamily=Times New Roman;fontStyle=0;fontSize=18;" vertex="1" parent="1">
          <mxGeometry x="1655" y="1303" width="125" height="92" as="geometry" />
        </mxCell>
        <mxCell id="vcjG7mU_yD_2sY2w4m83-37" style="edgeStyle=orthogonalEdgeStyle;rounded=0;orthogonalLoop=1;jettySize=auto;html=1;entryX=0.5;entryY=0;entryDx=0;entryDy=0;endArrow=none;endFill=0;startArrow=ERmandOne;startFill=0;fontFamily=Times New Roman;exitX=0;exitY=0.5;exitDx=0;exitDy=0;strokeWidth=2;" edge="1" parent="1" source="vcjG7mU_yD_2sY2w4m83-9" target="vcjG7mU_yD_2sY2w4m83-36">
          <mxGeometry relative="1" as="geometry">
            <mxPoint x="953" y="1504" as="sourcePoint" />
            <Array as="points">
              <mxPoint x="1052" y="1444" />
            </Array>
          </mxGeometry>
        </mxCell>
        <mxCell id="vcjG7mU_yD_2sY2w4m83-40" style="edgeStyle=orthogonalEdgeStyle;rounded=0;orthogonalLoop=1;jettySize=auto;html=1;entryX=0;entryY=0.5;entryDx=0;entryDy=0;endArrow=none;endFill=0;startArrow=ERmandOne;startFill=0;fontFamily=Times New Roman;exitX=1;exitY=0.25;exitDx=0;exitDy=0;strokeWidth=2;" edge="1" parent="1" source="vcjG7mU_yD_2sY2w4m83-9" target="vcjG7mU_yD_2sY2w4m83-39">
          <mxGeometry relative="1" as="geometry" />
        </mxCell>
        <mxCell id="vcjG7mU_yD_2sY2w4m83-43" style="edgeStyle=orthogonalEdgeStyle;rounded=0;orthogonalLoop=1;jettySize=auto;html=1;entryX=0;entryY=0.5;entryDx=0;entryDy=0;endArrow=none;endFill=0;startArrow=ERoneToMany;startFill=0;fontFamily=Times New Roman;strokeWidth=2;exitX=1;exitY=0.5;exitDx=0;exitDy=0;" edge="1" parent="1" source="vcjG7mU_yD_2sY2w4m83-9" target="vcjG7mU_yD_2sY2w4m83-42">
          <mxGeometry relative="1" as="geometry">
            <mxPoint x="1369" y="1374" as="sourcePoint" />
            <Array as="points">
              <mxPoint x="1315" y="1444" />
              <mxPoint x="1315" y="1444" />
            </Array>
          </mxGeometry>
        </mxCell>
        <mxCell id="vcjG7mU_yD_2sY2w4m83-9" value="&lt;p class=&quot;MsoNormal&quot; style=&quot;font-size: 18px;&quot;&gt;&lt;span style=&quot;font-size: 18px;&quot;&gt;&lt;span style=&quot;font-size: 18px; background: rgb(255, 255, 255);&quot;&gt;Room&lt;/span&gt;&lt;/span&gt;&lt;/p&gt;" style="rounded=1;whiteSpace=wrap;html=1;fontFamily=Times New Roman;fontStyle=0;fontSize=18;" vertex="1" parent="1">
          <mxGeometry x="1182" y="1413.5" width="120" height="60" as="geometry" />
        </mxCell>
        <mxCell id="vcjG7mU_yD_2sY2w4m83-64" style="edgeStyle=orthogonalEdgeStyle;rounded=0;orthogonalLoop=1;jettySize=auto;html=1;entryX=0.5;entryY=1;entryDx=0;entryDy=0;endArrow=none;endFill=0;startArrow=ERmandOne;startFill=0;fontFamily=Times New Roman;strokeWidth=2;" edge="1" parent="1" source="vcjG7mU_yD_2sY2w4m83-11" target="vcjG7mU_yD_2sY2w4m83-65">
          <mxGeometry relative="1" as="geometry">
            <mxPoint x="2750.882209329044" y="773.2353012982537" as="targetPoint" />
          </mxGeometry>
        </mxCell>
        <mxCell id="vcjG7mU_yD_2sY2w4m83-11" value="&lt;p class=&quot;MsoNormal&quot; style=&quot;font-size: 18px;&quot;&gt;&lt;span style=&quot;font-size: 18px;&quot;&gt;&lt;span style=&quot;font-size: 18px; background: rgb(255, 255, 255);&quot;&gt;Prescription&lt;/span&gt;&lt;/span&gt;&lt;/p&gt;" style="rounded=1;whiteSpace=wrap;html=1;fontFamily=Times New Roman;fontStyle=0;fontSize=18;" vertex="1" parent="1">
          <mxGeometry x="2591" y="836" width="120" height="60" as="geometry" />
        </mxCell>
        <mxCell id="vcjG7mU_yD_2sY2w4m83-55" style="edgeStyle=orthogonalEdgeStyle;rounded=0;orthogonalLoop=1;jettySize=auto;html=1;entryX=0.5;entryY=0;entryDx=0;entryDy=0;startArrow=ERmandOne;startFill=0;endArrow=none;endFill=0;fontFamily=Times New Roman;strokeWidth=2;" edge="1" parent="1" source="vcjG7mU_yD_2sY2w4m83-12" target="vcjG7mU_yD_2sY2w4m83-54">
          <mxGeometry relative="1" as="geometry" />
        </mxCell>
        <mxCell id="vcjG7mU_yD_2sY2w4m83-59" style="edgeStyle=orthogonalEdgeStyle;rounded=0;orthogonalLoop=1;jettySize=auto;html=1;entryX=0;entryY=0.5;entryDx=0;entryDy=0;endArrow=none;endFill=0;startArrow=ERmandOne;startFill=0;fontFamily=Times New Roman;strokeWidth=2;" edge="1" parent="1" source="vcjG7mU_yD_2sY2w4m83-12" target="vcjG7mU_yD_2sY2w4m83-58">
          <mxGeometry relative="1" as="geometry" />
        </mxCell>
        <mxCell id="vcjG7mU_yD_2sY2w4m83-108" style="edgeStyle=orthogonalEdgeStyle;rounded=0;orthogonalLoop=1;jettySize=auto;html=1;exitX=1;exitY=0.25;exitDx=0;exitDy=0;entryX=0.5;entryY=1;entryDx=0;entryDy=0;endArrow=none;endFill=0;startArrow=ERmandOne;startFill=0;strokeWidth=2;" edge="1" parent="1" source="vcjG7mU_yD_2sY2w4m83-12" target="vcjG7mU_yD_2sY2w4m83-61">
          <mxGeometry relative="1" as="geometry" />
        </mxCell>
        <mxCell id="vcjG7mU_yD_2sY2w4m83-12" value="&lt;p class=&quot;MsoNormal&quot; style=&quot;font-size: 18px;&quot;&gt;&lt;span style=&quot;font-size: 18px;&quot;&gt;&lt;span style=&quot;font-size: 18px; background: rgb(255, 255, 255);&quot;&gt;MedicalRecord&lt;/span&gt;&lt;/span&gt;&lt;/p&gt;" style="rounded=1;whiteSpace=wrap;html=1;fontFamily=Times New Roman;fontStyle=0;fontSize=18;" vertex="1" parent="1">
          <mxGeometry x="2058.5" y="834.5" width="141" height="63" as="geometry" />
        </mxCell>
        <mxCell id="vcjG7mU_yD_2sY2w4m83-13" value="&lt;p class=&quot;MsoNormal&quot; style=&quot;font-size: 18px;&quot;&gt;&lt;span style=&quot;font-size: 18px;&quot;&gt;&lt;span style=&quot;font-size: 18px; background: rgb(255, 255, 255);&quot;&gt;Billing&lt;/span&gt;&lt;/span&gt;&lt;/p&gt;" style="rounded=1;whiteSpace=wrap;html=1;fontFamily=Times New Roman;fontStyle=0;fontSize=18;" vertex="1" parent="1">
          <mxGeometry x="2271.5" y="670" width="120" height="60" as="geometry" />
        </mxCell>
        <mxCell id="vcjG7mU_yD_2sY2w4m83-26" style="edgeStyle=orthogonalEdgeStyle;rounded=0;orthogonalLoop=1;jettySize=auto;html=1;entryX=0.5;entryY=0;entryDx=0;entryDy=0;endArrow=ERoneToMany;endFill=0;fontFamily=Times New Roman;strokeWidth=2;" edge="1" parent="1" source="vcjG7mU_yD_2sY2w4m83-24" target="vcjG7mU_yD_2sY2w4m83-4">
          <mxGeometry relative="1" as="geometry" />
        </mxCell>
        <mxCell id="vcjG7mU_yD_2sY2w4m83-24" value="Relationship" style="rhombus;whiteSpace=wrap;html=1;fontFamily=Times New Roman;fillStyle=auto;rounded=1;" vertex="1" parent="1">
          <mxGeometry x="1643.5" y="933" width="147" height="80" as="geometry" />
        </mxCell>
        <mxCell id="vcjG7mU_yD_2sY2w4m83-29" style="edgeStyle=orthogonalEdgeStyle;rounded=0;orthogonalLoop=1;jettySize=auto;html=1;entryX=0;entryY=0.5;entryDx=0;entryDy=0;endArrow=ERoneToMany;endFill=0;fontFamily=Times New Roman;strokeWidth=2;" edge="1" parent="1" source="vcjG7mU_yD_2sY2w4m83-27" target="vcjG7mU_yD_2sY2w4m83-12">
          <mxGeometry relative="1" as="geometry" />
        </mxCell>
        <mxCell id="vcjG7mU_yD_2sY2w4m83-27" value="Relationship" style="rhombus;whiteSpace=wrap;html=1;fontFamily=Times New Roman;rounded=1;" vertex="1" parent="1">
          <mxGeometry x="1837" y="826" width="147" height="80" as="geometry" />
        </mxCell>
        <mxCell id="vcjG7mU_yD_2sY2w4m83-32" style="edgeStyle=orthogonalEdgeStyle;rounded=0;orthogonalLoop=1;jettySize=auto;html=1;exitX=0.5;exitY=0;exitDx=0;exitDy=0;entryX=0.5;entryY=1;entryDx=0;entryDy=0;endArrow=ERoneToMany;endFill=0;fontFamily=Times New Roman;strokeWidth=2;" edge="1" parent="1" source="vcjG7mU_yD_2sY2w4m83-30" target="vcjG7mU_yD_2sY2w4m83-9">
          <mxGeometry relative="1" as="geometry" />
        </mxCell>
        <mxCell id="vcjG7mU_yD_2sY2w4m83-30" value="Relationship" style="rhombus;whiteSpace=wrap;html=1;fontFamily=Times New Roman;rounded=1;" vertex="1" parent="1">
          <mxGeometry x="1189.5" y="1552" width="105" height="58" as="geometry" />
        </mxCell>
        <mxCell id="vcjG7mU_yD_2sY2w4m83-35" style="edgeStyle=orthogonalEdgeStyle;rounded=0;orthogonalLoop=1;jettySize=auto;html=1;endArrow=ERoneToMany;endFill=0;fontFamily=Times New Roman;entryX=0.29;entryY=1.001;entryDx=0;entryDy=0;entryPerimeter=0;strokeWidth=2;" edge="1" parent="1" source="vcjG7mU_yD_2sY2w4m83-33" target="vcjG7mU_yD_2sY2w4m83-8">
          <mxGeometry relative="1" as="geometry">
            <mxPoint x="1691" y="1396" as="targetPoint" />
          </mxGeometry>
        </mxCell>
        <mxCell id="vcjG7mU_yD_2sY2w4m83-33" value="Relationship" style="rhombus;whiteSpace=wrap;html=1;fontFamily=Times New Roman;rounded=1;" vertex="1" parent="1">
          <mxGeometry x="1529" y="1541" width="147" height="80" as="geometry" />
        </mxCell>
        <mxCell id="vcjG7mU_yD_2sY2w4m83-38" style="edgeStyle=orthogonalEdgeStyle;rounded=0;orthogonalLoop=1;jettySize=auto;html=1;exitX=0.5;exitY=1;exitDx=0;exitDy=0;endArrow=ERoneToMany;endFill=0;fontFamily=Times New Roman;strokeWidth=2;" edge="1" parent="1" target="vcjG7mU_yD_2sY2w4m83-7">
          <mxGeometry relative="1" as="geometry">
            <mxPoint x="1052.25" y="1582" as="sourcePoint" />
          </mxGeometry>
        </mxCell>
        <mxCell id="vcjG7mU_yD_2sY2w4m83-36" value="Relationship" style="rhombus;whiteSpace=wrap;html=1;fontFamily=Times New Roman;rounded=1;" vertex="1" parent="1">
          <mxGeometry x="996.5" y="1524" width="111.5" height="80" as="geometry" />
        </mxCell>
        <mxCell id="vcjG7mU_yD_2sY2w4m83-41" style="edgeStyle=orthogonalEdgeStyle;rounded=0;orthogonalLoop=1;jettySize=auto;html=1;entryX=0.25;entryY=1;entryDx=0;entryDy=0;endArrow=ERoneToMany;endFill=0;fontFamily=Times New Roman;exitX=0.5;exitY=0;exitDx=0;exitDy=0;strokeWidth=2;" edge="1" parent="1" source="vcjG7mU_yD_2sY2w4m83-39" target="vcjG7mU_yD_2sY2w4m83-4">
          <mxGeometry relative="1" as="geometry">
            <mxPoint x="1344" y="1240" as="sourcePoint" />
            <Array as="points">
              <mxPoint x="1508" y="1273" />
              <mxPoint x="1508" y="1273" />
              <mxPoint x="1508" y="1183" />
              <mxPoint x="1687" y="1183" />
            </Array>
          </mxGeometry>
        </mxCell>
        <mxCell id="vcjG7mU_yD_2sY2w4m83-39" value="Relationship" style="rhombus;whiteSpace=wrap;html=1;fontFamily=Times New Roman;rounded=1;" vertex="1" parent="1">
          <mxGeometry x="1434" y="1277" width="147" height="80" as="geometry" />
        </mxCell>
        <mxCell id="vcjG7mU_yD_2sY2w4m83-44" style="edgeStyle=orthogonalEdgeStyle;rounded=0;orthogonalLoop=1;jettySize=auto;html=1;exitX=1;exitY=0.5;exitDx=0;exitDy=0;entryX=0;entryY=0.5;entryDx=0;entryDy=0;endArrow=ERmandOne;endFill=0;fontFamily=Times New Roman;strokeWidth=2;" edge="1" parent="1" source="vcjG7mU_yD_2sY2w4m83-42">
          <mxGeometry relative="1" as="geometry">
            <mxPoint x="1296.0000000000002" y="1445" as="sourcePoint" />
            <mxPoint x="2204" y="1023.5000000000002" as="targetPoint" />
            <Array as="points">
              <mxPoint x="1627" y="1444" />
              <mxPoint x="1627" y="1265" />
              <mxPoint x="2058" y="1265" />
              <mxPoint x="2058" y="1024" />
            </Array>
          </mxGeometry>
        </mxCell>
        <mxCell id="vcjG7mU_yD_2sY2w4m83-42" value="Relationship" style="rhombus;whiteSpace=wrap;html=1;fontFamily=Times New Roman;rounded=1;" vertex="1" parent="1">
          <mxGeometry x="1430" y="1415.5" width="147" height="56" as="geometry" />
        </mxCell>
        <mxCell id="vcjG7mU_yD_2sY2w4m83-47" style="edgeStyle=orthogonalEdgeStyle;rounded=0;orthogonalLoop=1;jettySize=auto;html=1;entryX=1;entryY=0.5;entryDx=0;entryDy=0;endArrow=ERoneToMany;endFill=0;fontFamily=Times New Roman;exitX=0.5;exitY=1;exitDx=0;exitDy=0;strokeWidth=2;" edge="1" parent="1" source="vcjG7mU_yD_2sY2w4m83-45">
          <mxGeometry relative="1" as="geometry">
            <mxPoint x="1644" y="1856" as="sourcePoint" />
            <mxPoint x="1112" y="1761" as="targetPoint" />
            <Array as="points">
              <mxPoint x="1718" y="1856" />
              <mxPoint x="1378" y="1856" />
              <mxPoint x="1378" y="1832" />
              <mxPoint x="1166" y="1832" />
              <mxPoint x="1166" y="1761" />
            </Array>
          </mxGeometry>
        </mxCell>
        <mxCell id="vcjG7mU_yD_2sY2w4m83-45" value="Relationship" style="rhombus;whiteSpace=wrap;html=1;fontFamily=Times New Roman;rounded=1;" vertex="1" parent="1">
          <mxGeometry x="1644" y="1771" width="147" height="80" as="geometry" />
        </mxCell>
        <mxCell id="vcjG7mU_yD_2sY2w4m83-50" style="edgeStyle=orthogonalEdgeStyle;rounded=0;orthogonalLoop=1;jettySize=auto;html=1;entryX=0.5;entryY=1;entryDx=0;entryDy=0;endArrow=ERoneToMany;endFill=0;fontFamily=Times New Roman;strokeWidth=2;" edge="1" parent="1" source="vcjG7mU_yD_2sY2w4m83-48" target="vcjG7mU_yD_2sY2w4m83-4">
          <mxGeometry relative="1" as="geometry" />
        </mxCell>
        <mxCell id="vcjG7mU_yD_2sY2w4m83-48" value="Relationship" style="rhombus;whiteSpace=wrap;html=1;fontFamily=Times New Roman;rounded=1;" vertex="1" parent="1">
          <mxGeometry x="1643.5" y="1172" width="147" height="80" as="geometry" />
        </mxCell>
        <mxCell id="vcjG7mU_yD_2sY2w4m83-53" style="edgeStyle=orthogonalEdgeStyle;rounded=0;orthogonalLoop=1;jettySize=auto;html=1;endArrow=ERoneToMany;endFill=0;fontFamily=Times New Roman;entryX=0;entryY=0.75;entryDx=0;entryDy=0;strokeWidth=2;" edge="1" parent="1" source="vcjG7mU_yD_2sY2w4m83-51" target="vcjG7mU_yD_2sY2w4m83-3">
          <mxGeometry relative="1" as="geometry" />
        </mxCell>
        <mxCell id="vcjG7mU_yD_2sY2w4m83-51" value="Relationship" style="rhombus;whiteSpace=wrap;html=1;fontFamily=Times New Roman;rounded=1;" vertex="1" parent="1">
          <mxGeometry x="1917" y="1737" width="147" height="55" as="geometry" />
        </mxCell>
        <mxCell id="vcjG7mU_yD_2sY2w4m83-56" style="edgeStyle=orthogonalEdgeStyle;rounded=0;orthogonalLoop=1;jettySize=auto;html=1;entryX=0.5;entryY=0;entryDx=0;entryDy=0;endArrow=ERoneToMany;endFill=0;fontFamily=Times New Roman;strokeWidth=2;" edge="1" parent="1" source="vcjG7mU_yD_2sY2w4m83-54" target="vcjG7mU_yD_2sY2w4m83-3">
          <mxGeometry relative="1" as="geometry" />
        </mxCell>
        <mxCell id="vcjG7mU_yD_2sY2w4m83-54" value="Relationship" style="rhombus;whiteSpace=wrap;html=1;fontFamily=Times New Roman;rounded=1;" vertex="1" parent="1">
          <mxGeometry x="2055.5" y="937" width="147" height="53" as="geometry" />
        </mxCell>
        <mxCell id="vcjG7mU_yD_2sY2w4m83-60" style="edgeStyle=orthogonalEdgeStyle;rounded=0;orthogonalLoop=1;jettySize=auto;html=1;endArrow=ERoneToMany;endFill=0;fontFamily=Times New Roman;strokeWidth=2;" edge="1" parent="1" source="vcjG7mU_yD_2sY2w4m83-58" target="vcjG7mU_yD_2sY2w4m83-11">
          <mxGeometry relative="1" as="geometry" />
        </mxCell>
        <mxCell id="vcjG7mU_yD_2sY2w4m83-58" value="Relationship" style="rhombus;whiteSpace=wrap;html=1;fontFamily=Times New Roman;rounded=1;" vertex="1" parent="1">
          <mxGeometry x="2375" y="840" width="147" height="53" as="geometry" />
        </mxCell>
        <mxCell id="vcjG7mU_yD_2sY2w4m83-63" style="edgeStyle=orthogonalEdgeStyle;rounded=0;orthogonalLoop=1;jettySize=auto;html=1;endArrow=ERoneToMany;endFill=0;fontFamily=Times New Roman;strokeWidth=2;" edge="1" parent="1" source="vcjG7mU_yD_2sY2w4m83-61" target="vcjG7mU_yD_2sY2w4m83-13">
          <mxGeometry relative="1" as="geometry" />
        </mxCell>
        <mxCell id="vcjG7mU_yD_2sY2w4m83-61" value="Relationship" style="rhombus;whiteSpace=wrap;html=1;fontFamily=Times New Roman;rounded=1;" vertex="1" parent="1">
          <mxGeometry x="2258" y="770" width="147" height="56" as="geometry" />
        </mxCell>
        <mxCell id="vcjG7mU_yD_2sY2w4m83-66" style="edgeStyle=orthogonalEdgeStyle;rounded=0;orthogonalLoop=1;jettySize=auto;html=1;entryX=0.5;entryY=1;entryDx=0;entryDy=0;endArrow=ERmandOne;endFill=0;fontFamily=Times New Roman;strokeWidth=2;" edge="1" parent="1" source="vcjG7mU_yD_2sY2w4m83-65" target="vcjG7mU_yD_2sY2w4m83-6">
          <mxGeometry relative="1" as="geometry" />
        </mxCell>
        <mxCell id="vcjG7mU_yD_2sY2w4m83-65" value="Relationship" style="rhombus;whiteSpace=wrap;html=1;fontFamily=Times New Roman;rounded=1;" vertex="1" parent="1">
          <mxGeometry x="2595" y="745" width="113" height="50" as="geometry" />
        </mxCell>
        <mxCell id="vcjG7mU_yD_2sY2w4m83-67" value="&lt;p class=&quot;MsoNormal&quot;&gt;&lt;span style=&quot;color: rgb(0, 0, 0); font-weight: normal; font-size: 12pt; background: rgb(255, 255, 255);&quot;&gt;FullName&lt;/span&gt;&lt;/p&gt;" style="ellipse;whiteSpace=wrap;html=1;fontFamily=Times New Roman;" vertex="1" parent="1">
          <mxGeometry x="1527" y="601" width="106" height="70" as="geometry" />
        </mxCell>
        <mxCell id="vcjG7mU_yD_2sY2w4m83-68" value="&lt;p class=&quot;MsoNormal&quot;&gt;&lt;span style=&quot;color: rgb(0, 0, 0); font-weight: normal; font-size: 12pt; background: rgb(255, 255, 255);&quot;&gt;PatientID&lt;/span&gt;&lt;/p&gt;" style="ellipse;whiteSpace=wrap;html=1;fontStyle=4;fontFamily=Times New Roman;" vertex="1" parent="1">
          <mxGeometry x="1646" y="590" width="120" height="80" as="geometry" />
        </mxCell>
        <mxCell id="vcjG7mU_yD_2sY2w4m83-69" value="&lt;p class=&quot;MsoNormal&quot;&gt;&lt;span style=&quot;color: rgb(0, 0, 0); font-weight: normal; font-size: 12pt; background: rgb(255, 255, 255);&quot;&gt;DOB&lt;/span&gt;&lt;/p&gt;" style="ellipse;whiteSpace=wrap;html=1;fontFamily=Times New Roman;" vertex="1" parent="1">
          <mxGeometry x="1440" y="636" width="87" height="63" as="geometry" />
        </mxCell>
        <mxCell id="vcjG7mU_yD_2sY2w4m83-70" value="&lt;p class=&quot;MsoNormal&quot;&gt;&lt;span style=&quot;color: rgb(0, 0, 0); font-weight: normal; font-size: 12pt; background: rgb(255, 255, 255);&quot;&gt;Sex&lt;/span&gt;&lt;/p&gt;" style="ellipse;whiteSpace=wrap;html=1;fontFamily=Times New Roman;" vertex="1" parent="1">
          <mxGeometry x="1383" y="686" width="80" height="62" as="geometry" />
        </mxCell>
        <mxCell id="vcjG7mU_yD_2sY2w4m83-71" value="&lt;p class=&quot;MsoNormal&quot;&gt;&lt;span style=&quot;color: rgb(0, 0, 0); font-weight: normal; font-size: 12pt; background: rgb(255, 255, 255);&quot;&gt;HealthInsurance&lt;/span&gt;&lt;/p&gt;" style="ellipse;whiteSpace=wrap;html=1;fontFamily=Times New Roman;" vertex="1" parent="1">
          <mxGeometry x="1280.5" y="746" width="139" height="70" as="geometry" />
        </mxCell>
        <mxCell id="vcjG7mU_yD_2sY2w4m83-72" value="&lt;p class=&quot;MsoNormal&quot;&gt;&lt;span style=&quot;color: rgb(0, 0, 0); font-weight: normal; font-size: 12pt; background: rgb(255, 255, 255);&quot;&gt;Address&lt;/span&gt;&lt;/p&gt;" style="ellipse;whiteSpace=wrap;html=1;fontFamily=Times New Roman;" vertex="1" parent="1">
          <mxGeometry x="1250" y="827.5" width="123" height="57" as="geometry" />
        </mxCell>
        <mxCell id="vcjG7mU_yD_2sY2w4m83-73" value="&lt;p class=&quot;MsoNormal&quot;&gt;&lt;span style=&quot;color: rgb(0, 0, 0); font-weight: normal; font-size: 12pt; background: rgb(255, 255, 255);&quot;&gt;PhoneNumber&lt;/span&gt;&lt;/p&gt;" style="ellipse;whiteSpace=wrap;html=1;fontFamily=Times New Roman;" vertex="1" parent="1">
          <mxGeometry x="1230" y="896" width="129" height="55" as="geometry" />
        </mxCell>
        <mxCell id="vcjG7mU_yD_2sY2w4m83-74" value="&lt;p class=&quot;MsoNormal&quot;&gt;&lt;span style=&quot;color: rgb(0, 0, 0); font-weight: normal; font-size: 12pt; background: rgb(255, 255, 255);&quot;&gt;Email&lt;/span&gt;&lt;/p&gt;" style="ellipse;whiteSpace=wrap;html=1;fontFamily=Times New Roman;" vertex="1" parent="1">
          <mxGeometry x="1362" y="920" width="102" height="51" as="geometry" />
        </mxCell>
        <mxCell id="vcjG7mU_yD_2sY2w4m83-84" value="&lt;p class=&quot;MsoNormal&quot;&gt;&lt;span style=&quot;mso-spacerun:&#39;yes&#39;;font-family:&#39;Times New Roman&#39;;mso-fareast-font-family:Consolas;&#xa;color:rgb(0,0,0);font-weight:normal;font-size:12.0000pt;&#xa;mso-font-kerning:0.0000pt;background:rgb(255,255,255);mso-shading:rgb(255,255,255);&quot;&gt;AppointmentID&lt;/span&gt;&lt;/p&gt;" style="ellipse;whiteSpace=wrap;html=1;fontStyle=4" vertex="1" parent="1">
          <mxGeometry x="1470" y="961" width="135" height="54" as="geometry" />
        </mxCell>
        <mxCell id="vcjG7mU_yD_2sY2w4m83-85" value="&lt;p class=&quot;MsoNormal&quot;&gt;&lt;span style=&quot;mso-spacerun:&#39;yes&#39;;font-family:&#39;Times New Roman&#39;;mso-fareast-font-family:Consolas;&#xa;color:rgb(0,0,0);font-weight:normal;font-size:12.0000pt;&#xa;mso-font-kerning:0.0000pt;background:rgb(255,255,255);mso-shading:rgb(255,255,255);&quot;&gt;PatientID&lt;/span&gt;&lt;/p&gt;" style="ellipse;whiteSpace=wrap;html=1;" vertex="1" parent="1">
          <mxGeometry x="1383" y="993" width="98" height="46" as="geometry" />
        </mxCell>
        <mxCell id="vcjG7mU_yD_2sY2w4m83-87" value="&lt;p class=&quot;MsoNormal&quot;&gt;&lt;span style=&quot;mso-spacerun:&#39;yes&#39;;font-family:&#39;Times New Roman&#39;;mso-fareast-font-family:Consolas;&#xa;color:rgb(0,0,0);font-weight:normal;font-size:12.0000pt;&#xa;mso-font-kerning:0.0000pt;background:rgb(255,255,255);mso-shading:rgb(255,255,255);&quot;&gt;StaffID&lt;/span&gt;&lt;/p&gt;" style="ellipse;whiteSpace=wrap;html=1;" vertex="1" parent="1">
          <mxGeometry x="1319" y="1024" width="75" height="38" as="geometry" />
        </mxCell>
        <mxCell id="vcjG7mU_yD_2sY2w4m83-88" value="&lt;p class=&quot;MsoNormal&quot;&gt;&lt;span style=&quot;mso-spacerun:&#39;yes&#39;;font-family:&#39;Times New Roman&#39;;mso-fareast-font-family:Consolas;&#xa;color:rgb(0,0,0);font-weight:normal;font-size:12.0000pt;&#xa;mso-font-kerning:0.0000pt;background:rgb(255,255,255);mso-shading:rgb(255,255,255);&quot;&gt;AppointmentDate&lt;/span&gt;&lt;/p&gt;" style="ellipse;whiteSpace=wrap;html=1;" vertex="1" parent="1">
          <mxGeometry x="1334" y="1072.5" width="143" height="39" as="geometry" />
        </mxCell>
        <mxCell id="vcjG7mU_yD_2sY2w4m83-89" value="&lt;p class=&quot;MsoNormal&quot;&gt;&lt;span style=&quot;mso-spacerun:&#39;yes&#39;;font-family:&#39;Times New Roman&#39;;mso-fareast-font-family:Consolas;&#xa;color:rgb(0,0,0);font-weight:normal;font-size:12.0000pt;&#xa;mso-font-kerning:0.0000pt;background:rgb(255,255,255);mso-shading:rgb(255,255,255);&quot;&gt;AppointmentTime&lt;/span&gt;&lt;/p&gt;" style="ellipse;whiteSpace=wrap;html=1;" vertex="1" parent="1">
          <mxGeometry x="1427" y="1109" width="143" height="46" as="geometry" />
        </mxCell>
        <mxCell id="vcjG7mU_yD_2sY2w4m83-90" value="&lt;p class=&quot;MsoNormal&quot;&gt;&lt;span style=&quot;mso-spacerun:&#39;yes&#39;;font-family:&#39;Times New Roman&#39;;mso-fareast-font-family:Consolas;&#xa;color:rgb(0,0,0);font-weight:normal;font-size:12.0000pt;&#xa;mso-font-kerning:0.0000pt;background:rgb(255,255,255);mso-shading:rgb(255,255,255);&quot;&gt;RoomName&lt;/span&gt;&lt;/p&gt;" style="ellipse;whiteSpace=wrap;html=1;" vertex="1" parent="1">
          <mxGeometry x="1840" y="985" width="114" height="39" as="geometry" />
        </mxCell>
        <mxCell id="vcjG7mU_yD_2sY2w4m83-91" value="&lt;p class=&quot;MsoNormal&quot;&gt;&lt;span style=&quot;mso-spacerun:&#39;yes&#39;;font-family:&#39;Times New Roman&#39;;mso-fareast-font-family:Consolas;&#xa;color:rgb(0,0,0);font-weight:normal;font-size:12.0000pt;&#xa;mso-font-kerning:0.0000pt;background:rgb(255,255,255);mso-shading:rgb(255,255,255);&quot;&gt;Purpose&lt;/span&gt;&lt;/p&gt;" style="ellipse;whiteSpace=wrap;html=1;" vertex="1" parent="1">
          <mxGeometry x="1895" y="1037" width="103" height="40" as="geometry" />
        </mxCell>
        <mxCell id="vcjG7mU_yD_2sY2w4m83-92" value="&lt;p class=&quot;MsoNormal&quot;&gt;&lt;span style=&quot;mso-spacerun:&#39;yes&#39;;font-family:&#39;Times New Roman&#39;;mso-fareast-font-family:Consolas;&#xa;color:rgb(0,0,0);font-weight:normal;font-size:12.0000pt;&#xa;mso-font-kerning:0.0000pt;background:rgb(255,255,255);mso-shading:rgb(255,255,255);&quot;&gt;Note&lt;/span&gt;&lt;/p&gt;" style="ellipse;whiteSpace=wrap;html=1;" vertex="1" parent="1">
          <mxGeometry x="1922" y="1086" width="89" height="41" as="geometry" />
        </mxCell>
        <mxCell id="vcjG7mU_yD_2sY2w4m83-93" value="&lt;p class=&quot;MsoNormal&quot;&gt;&lt;span style=&quot;mso-spacerun:&#39;yes&#39;;font-family:&#39;Times New Roman&#39;;mso-fareast-font-family:Consolas;&#xa;color:rgb(0,0,0);font-weight:normal;font-size:12.0000pt;&#xa;mso-font-kerning:0.0000pt;background:rgb(255,255,255);mso-shading:rgb(255,255,255);&quot;&gt;Status&lt;/span&gt;&lt;/p&gt;" style="ellipse;whiteSpace=wrap;html=1;" vertex="1" parent="1">
          <mxGeometry x="1856" y="1138" width="77" height="36" as="geometry" />
        </mxCell>
        <mxCell id="vcjG7mU_yD_2sY2w4m83-95" style="edgeStyle=orthogonalEdgeStyle;rounded=0;orthogonalLoop=1;jettySize=auto;html=1;exitX=0.006;exitY=0.368;exitDx=0;exitDy=0;entryX=0.986;entryY=0.645;entryDx=0;entryDy=0;entryPerimeter=0;endArrow=none;endFill=0;exitPerimeter=0;" edge="1" parent="1" source="vcjG7mU_yD_2sY2w4m83-4" target="vcjG7mU_yD_2sY2w4m83-85">
          <mxGeometry relative="1" as="geometry">
            <Array as="points">
              <mxPoint x="1635" y="1084" />
              <mxPoint x="1635" y="1023" />
            </Array>
          </mxGeometry>
        </mxCell>
        <mxCell id="vcjG7mU_yD_2sY2w4m83-98" style="edgeStyle=orthogonalEdgeStyle;rounded=0;orthogonalLoop=1;jettySize=auto;html=1;exitX=0;exitY=0.75;exitDx=0;exitDy=0;entryX=0.98;entryY=0.338;entryDx=0;entryDy=0;entryPerimeter=0;endArrow=none;endFill=0;" edge="1" parent="1" source="vcjG7mU_yD_2sY2w4m83-4" target="vcjG7mU_yD_2sY2w4m83-89">
          <mxGeometry relative="1" as="geometry" />
        </mxCell>
        <mxCell id="vcjG7mU_yD_2sY2w4m83-102" style="edgeStyle=orthogonalEdgeStyle;rounded=0;orthogonalLoop=1;jettySize=auto;html=1;exitX=0;exitY=0.5;exitDx=0;exitDy=0;entryX=1.002;entryY=0.632;entryDx=0;entryDy=0;entryPerimeter=0;endArrow=none;endFill=0;" edge="1" parent="1" source="vcjG7mU_yD_2sY2w4m83-93" target="vcjG7mU_yD_2sY2w4m83-4">
          <mxGeometry relative="1" as="geometry">
            <Array as="points">
              <mxPoint x="1846" y="1156" />
              <mxPoint x="1846" y="1100" />
            </Array>
          </mxGeometry>
        </mxCell>
        <mxCell id="vcjG7mU_yD_2sY2w4m83-103" value="&lt;p class=&quot;MsoNormal&quot;&gt;&lt;span style=&quot;mso-spacerun:&#39;yes&#39;;font-family:&#39;Times New Roman&#39;;mso-fareast-font-family:Consolas;&#xa;color:rgb(0,0,0);font-weight:normal;font-size:12.0000pt;&#xa;mso-font-kerning:0.0000pt;background:rgb(255,255,255);mso-shading:rgb(255,255,255);&quot;&gt;RecordID&lt;/span&gt;&lt;/p&gt;" style="ellipse;whiteSpace=wrap;html=1;fontStyle=4" vertex="1" parent="1">
          <mxGeometry x="1840" y="740" width="97" height="55" as="geometry" />
        </mxCell>
        <mxCell id="vcjG7mU_yD_2sY2w4m83-111" style="edgeStyle=orthogonalEdgeStyle;rounded=0;orthogonalLoop=1;jettySize=auto;html=1;endArrow=none;endFill=0;entryX=0.143;entryY=-0.004;entryDx=0;entryDy=0;entryPerimeter=0;" edge="1" parent="1" source="vcjG7mU_yD_2sY2w4m83-104" target="vcjG7mU_yD_2sY2w4m83-12">
          <mxGeometry relative="1" as="geometry">
            <mxPoint x="2083" y="826" as="targetPoint" />
            <Array as="points">
              <mxPoint x="1942" y="759" />
              <mxPoint x="2079" y="759" />
              <mxPoint x="2079" y="826" />
              <mxPoint x="2079" y="826" />
            </Array>
          </mxGeometry>
        </mxCell>
        <mxCell id="vcjG7mU_yD_2sY2w4m83-104" value="&lt;p class=&quot;MsoNormal&quot;&gt;&lt;span style=&quot;mso-spacerun:&#39;yes&#39;;font-family:&#39;Times New Roman&#39;;mso-fareast-font-family:Consolas;&#xa;color:rgb(0,0,0);font-weight:normal;font-size:12.0000pt;&#xa;mso-font-kerning:0.0000pt;background:rgb(255,255,255);mso-shading:rgb(255,255,255);&quot;&gt;PatientID&lt;/span&gt;&lt;/p&gt;" style="ellipse;whiteSpace=wrap;html=1;" vertex="1" parent="1">
          <mxGeometry x="1882" y="682.5" width="87" height="51" as="geometry" />
        </mxCell>
        <mxCell id="vcjG7mU_yD_2sY2w4m83-105" value="&lt;p class=&quot;MsoNormal&quot;&gt;&lt;span style=&quot;mso-spacerun:&#39;yes&#39;;font-family:&#39;Times New Roman&#39;;mso-fareast-font-family:Consolas;&#xa;color:rgb(0,0,0);font-weight:normal;font-size:12.0000pt;&#xa;mso-font-kerning:0.0000pt;background:rgb(255,255,255);mso-shading:rgb(255,255,255);&quot;&gt;VisitDate&lt;/span&gt;&lt;/p&gt;" style="ellipse;whiteSpace=wrap;html=1;" vertex="1" parent="1">
          <mxGeometry x="1937" y="636" width="95" height="45" as="geometry" />
        </mxCell>
        <mxCell id="vcjG7mU_yD_2sY2w4m83-113" style="edgeStyle=orthogonalEdgeStyle;rounded=0;orthogonalLoop=1;jettySize=auto;html=1;entryX=0.25;entryY=0;entryDx=0;entryDy=0;endArrow=none;endFill=0;" edge="1" parent="1" source="vcjG7mU_yD_2sY2w4m83-106" target="vcjG7mU_yD_2sY2w4m83-12">
          <mxGeometry relative="1" as="geometry">
            <Array as="points">
              <mxPoint x="2094" y="776" />
              <mxPoint x="2094" y="776" />
            </Array>
          </mxGeometry>
        </mxCell>
        <mxCell id="vcjG7mU_yD_2sY2w4m83-106" value="&lt;p class=&quot;MsoNormal&quot;&gt;&lt;span style=&quot;mso-spacerun:&#39;yes&#39;;font-family:&#39;Times New Roman&#39;;mso-fareast-font-family:Consolas;&#xa;color:rgb(0,0,0);font-weight:normal;font-size:12.0000pt;&#xa;mso-font-kerning:0.0000pt;background:rgb(255,255,255);mso-shading:rgb(255,255,255);&quot;&gt;Diagnosis&lt;/span&gt;&lt;/p&gt;" style="ellipse;whiteSpace=wrap;html=1;" vertex="1" parent="1">
          <mxGeometry x="2021" y="670" width="88" height="48" as="geometry" />
        </mxCell>
        <mxCell id="vcjG7mU_yD_2sY2w4m83-107" value="&lt;p class=&quot;MsoNormal&quot;&gt;&lt;span style=&quot;mso-spacerun:&#39;yes&#39;;font-family:&#39;Times New Roman&#39;;mso-fareast-font-family:Consolas;&#xa;color:rgb(0,0,0);font-weight:normal;font-size:12.0000pt;&#xa;mso-font-kerning:0.0000pt;background:rgb(255,255,255);mso-shading:rgb(255,255,255);&quot;&gt;Prescription&lt;/span&gt;&lt;/p&gt;" style="ellipse;whiteSpace=wrap;html=1;" vertex="1" parent="1">
          <mxGeometry x="2090.5" y="637.5" width="108" height="45" as="geometry" />
        </mxCell>
        <mxCell id="vcjG7mU_yD_2sY2w4m83-115" style="edgeStyle=orthogonalEdgeStyle;rounded=0;orthogonalLoop=1;jettySize=auto;html=1;exitX=0;exitY=1;exitDx=0;exitDy=0;entryX=0.5;entryY=0;entryDx=0;entryDy=0;endArrow=none;endFill=0;" edge="1" parent="1" source="vcjG7mU_yD_2sY2w4m83-109" target="vcjG7mU_yD_2sY2w4m83-12">
          <mxGeometry relative="1" as="geometry" />
        </mxCell>
        <mxCell id="vcjG7mU_yD_2sY2w4m83-109" value="&lt;p class=&quot;MsoNormal&quot;&gt;&lt;span style=&quot;mso-spacerun:&#39;yes&#39;;font-family:&#39;Times New Roman&#39;;mso-fareast-font-family:Consolas;&#xa;color:rgb(0,0,0);font-weight:normal;font-size:12.0000pt;&#xa;mso-font-kerning:0.0000pt;background:rgb(255,255,255);mso-shading:rgb(255,255,255);&quot;&gt;Note&lt;/span&gt;&lt;/p&gt;" style="ellipse;whiteSpace=wrap;html=1;" vertex="1" parent="1">
          <mxGeometry x="2170" y="686" width="87" height="44" as="geometry" />
        </mxCell>
        <mxCell id="vcjG7mU_yD_2sY2w4m83-110" style="edgeStyle=orthogonalEdgeStyle;rounded=0;orthogonalLoop=1;jettySize=auto;html=1;endArrow=none;endFill=0;entryX=0.097;entryY=-0.001;entryDx=0;entryDy=0;entryPerimeter=0;" edge="1" parent="1" source="vcjG7mU_yD_2sY2w4m83-103" target="vcjG7mU_yD_2sY2w4m83-12">
          <mxGeometry relative="1" as="geometry">
            <mxPoint x="2067" y="826" as="targetPoint" />
          </mxGeometry>
        </mxCell>
        <mxCell id="vcjG7mU_yD_2sY2w4m83-112" style="edgeStyle=orthogonalEdgeStyle;rounded=0;orthogonalLoop=1;jettySize=auto;html=1;exitX=0.5;exitY=1;exitDx=0;exitDy=0;entryX=0.204;entryY=-0.002;entryDx=0;entryDy=0;entryPerimeter=0;endArrow=none;endFill=0;" edge="1" parent="1" source="vcjG7mU_yD_2sY2w4m83-105" target="vcjG7mU_yD_2sY2w4m83-12">
          <mxGeometry relative="1" as="geometry">
            <Array as="points">
              <mxPoint x="1985" y="752" />
              <mxPoint x="2087" y="752" />
            </Array>
          </mxGeometry>
        </mxCell>
        <mxCell id="vcjG7mU_yD_2sY2w4m83-114" style="edgeStyle=orthogonalEdgeStyle;rounded=0;orthogonalLoop=1;jettySize=auto;html=1;endArrow=none;endFill=0;entryX=0.342;entryY=0.01;entryDx=0;entryDy=0;entryPerimeter=0;" edge="1" parent="1" source="vcjG7mU_yD_2sY2w4m83-107" target="vcjG7mU_yD_2sY2w4m83-12">
          <mxGeometry relative="1" as="geometry">
            <mxPoint x="2107" y="834" as="targetPoint" />
            <Array as="points">
              <mxPoint x="2123" y="759" />
              <mxPoint x="2107" y="759" />
            </Array>
          </mxGeometry>
        </mxCell>
        <mxCell id="vcjG7mU_yD_2sY2w4m83-116" value="&lt;p class=&quot;MsoNormal&quot;&gt;&lt;span style=&quot;mso-spacerun:&#39;yes&#39;;font-family:&#39;Times New Roman&#39;;mso-fareast-font-family:Consolas;&#xa;color:rgb(0,0,0);font-weight:normal;font-size:12.0000pt;&#xa;mso-font-kerning:0.0000pt;background:rgb(255,255,255);mso-shading:rgb(255,255,255);&quot;&gt;BillID&lt;/span&gt;&lt;/p&gt;" style="ellipse;whiteSpace=wrap;html=1;fontStyle=4" vertex="1" parent="1">
          <mxGeometry x="2365" y="580" width="75" height="38" as="geometry" />
        </mxCell>
        <mxCell id="vcjG7mU_yD_2sY2w4m83-122" style="edgeStyle=orthogonalEdgeStyle;rounded=0;orthogonalLoop=1;jettySize=auto;html=1;exitX=0;exitY=1;exitDx=0;exitDy=0;entryX=1;entryY=0.25;entryDx=0;entryDy=0;endArrow=none;endFill=0;" edge="1" parent="1" source="vcjG7mU_yD_2sY2w4m83-117" target="vcjG7mU_yD_2sY2w4m83-13">
          <mxGeometry relative="1" as="geometry" />
        </mxCell>
        <mxCell id="vcjG7mU_yD_2sY2w4m83-117" value="&lt;p class=&quot;MsoNormal&quot;&gt;&lt;span style=&quot;mso-spacerun:&#39;yes&#39;;font-family:&#39;Times New Roman&#39;;mso-fareast-font-family:Consolas;&#xa;color:rgb(0,0,0);font-weight:normal;font-size:12.0000pt;&#xa;mso-font-kerning:0.0000pt;background:rgb(255,255,255);mso-shading:rgb(255,255,255);&quot;&gt;RecordID&lt;/span&gt;&lt;/p&gt;" style="ellipse;whiteSpace=wrap;html=1;" vertex="1" parent="1">
          <mxGeometry x="2433" y="607" width="89" height="40" as="geometry" />
        </mxCell>
        <mxCell id="vcjG7mU_yD_2sY2w4m83-118" value="&lt;p class=&quot;MsoNormal&quot;&gt;&lt;span style=&quot;mso-spacerun:&#39;yes&#39;;font-family:&#39;Times New Roman&#39;;mso-fareast-font-family:Consolas;&#xa;color:rgb(0,0,0);font-weight:normal;font-size:12.0000pt;&#xa;mso-font-kerning:0.0000pt;background:rgb(255,255,255);mso-shading:rgb(255,255,255);&quot;&gt;Amount&lt;/span&gt;&lt;/p&gt;" style="ellipse;whiteSpace=wrap;html=1;" vertex="1" parent="1">
          <mxGeometry x="2472" y="651" width="72" height="42" as="geometry" />
        </mxCell>
        <mxCell id="vcjG7mU_yD_2sY2w4m83-124" style="edgeStyle=orthogonalEdgeStyle;rounded=0;orthogonalLoop=1;jettySize=auto;html=1;exitX=0;exitY=0.5;exitDx=0;exitDy=0;entryX=1;entryY=0.5;entryDx=0;entryDy=0;endArrow=none;endFill=0;" edge="1" parent="1" source="vcjG7mU_yD_2sY2w4m83-119" target="vcjG7mU_yD_2sY2w4m83-13">
          <mxGeometry relative="1" as="geometry" />
        </mxCell>
        <mxCell id="vcjG7mU_yD_2sY2w4m83-119" value="&lt;p class=&quot;MsoNormal&quot;&gt;&lt;span style=&quot;mso-spacerun:&#39;yes&#39;;font-family:&#39;Times New Roman&#39;;mso-fareast-font-family:Consolas;&#xa;color:rgb(0,0,0);font-weight:normal;font-size:12.0000pt;&#xa;mso-font-kerning:0.0000pt;background:rgb(255,255,255);mso-shading:rgb(255,255,255);&quot;&gt;BillingDate&lt;/span&gt;&lt;/p&gt;" style="ellipse;whiteSpace=wrap;html=1;" vertex="1" parent="1">
          <mxGeometry x="2482" y="699" width="96" height="43" as="geometry" />
        </mxCell>
        <mxCell id="vcjG7mU_yD_2sY2w4m83-120" value="&lt;p class=&quot;MsoNormal&quot;&gt;&lt;span style=&quot;mso-spacerun:&#39;yes&#39;;font-family:&#39;Times New Roman&#39;;mso-fareast-font-family:Consolas;&#xa;color:rgb(0,0,0);font-weight:normal;font-size:12.0000pt;&#xa;mso-font-kerning:0.0000pt;background:rgb(255,255,255);mso-shading:rgb(255,255,255);&quot;&gt;Note&lt;/span&gt;&lt;/p&gt;" style="ellipse;whiteSpace=wrap;html=1;" vertex="1" parent="1">
          <mxGeometry x="2486" y="748.5" width="58" height="38" as="geometry" />
        </mxCell>
        <mxCell id="vcjG7mU_yD_2sY2w4m83-121" style="edgeStyle=orthogonalEdgeStyle;rounded=0;orthogonalLoop=1;jettySize=auto;html=1;exitX=0;exitY=1;exitDx=0;exitDy=0;entryX=0.87;entryY=-0.007;entryDx=0;entryDy=0;entryPerimeter=0;endArrow=none;endFill=0;" edge="1" parent="1" source="vcjG7mU_yD_2sY2w4m83-116" target="vcjG7mU_yD_2sY2w4m83-13">
          <mxGeometry relative="1" as="geometry" />
        </mxCell>
        <mxCell id="vcjG7mU_yD_2sY2w4m83-123" style="edgeStyle=orthogonalEdgeStyle;rounded=0;orthogonalLoop=1;jettySize=auto;html=1;exitX=0;exitY=0.5;exitDx=0;exitDy=0;entryX=0.999;entryY=0.396;entryDx=0;entryDy=0;entryPerimeter=0;endArrow=none;endFill=0;" edge="1" parent="1" source="vcjG7mU_yD_2sY2w4m83-118" target="vcjG7mU_yD_2sY2w4m83-13">
          <mxGeometry relative="1" as="geometry" />
        </mxCell>
        <mxCell id="vcjG7mU_yD_2sY2w4m83-125" style="edgeStyle=orthogonalEdgeStyle;rounded=0;orthogonalLoop=1;jettySize=auto;html=1;exitX=0;exitY=0.5;exitDx=0;exitDy=0;entryX=0.995;entryY=0.637;entryDx=0;entryDy=0;entryPerimeter=0;endArrow=none;endFill=0;" edge="1" parent="1" source="vcjG7mU_yD_2sY2w4m83-120" target="vcjG7mU_yD_2sY2w4m83-13">
          <mxGeometry relative="1" as="geometry">
            <Array as="points">
              <mxPoint x="2426" y="767" />
              <mxPoint x="2426" y="708" />
            </Array>
          </mxGeometry>
        </mxCell>
        <mxCell id="vcjG7mU_yD_2sY2w4m83-126" value="&lt;p class=&quot;MsoNormal&quot;&gt;&lt;span style=&quot;mso-spacerun:&#39;yes&#39;;font-family:&#39;Times New Roman&#39;;mso-fareast-font-family:Consolas;&#xa;color:rgb(0,0,0);font-weight:normal;font-size:12.0000pt;&#xa;mso-font-kerning:0.0000pt;background:rgb(255,255,255);mso-shading:rgb(255,255,255);&quot;&gt;DetailID&lt;/span&gt;&lt;/p&gt;" style="ellipse;whiteSpace=wrap;html=1;fontStyle=4" vertex="1" parent="1">
          <mxGeometry x="2667" y="534" width="84" height="46" as="geometry" />
        </mxCell>
        <mxCell id="vcjG7mU_yD_2sY2w4m83-135" style="edgeStyle=orthogonalEdgeStyle;rounded=0;orthogonalLoop=1;jettySize=auto;html=1;exitX=0;exitY=1;exitDx=0;exitDy=0;entryX=1;entryY=0.25;entryDx=0;entryDy=0;endArrow=none;endFill=0;" edge="1" parent="1" source="vcjG7mU_yD_2sY2w4m83-127" target="vcjG7mU_yD_2sY2w4m83-6">
          <mxGeometry relative="1" as="geometry">
            <Array as="points">
              <mxPoint x="2747" y="595" />
              <mxPoint x="2747" y="631" />
            </Array>
          </mxGeometry>
        </mxCell>
        <mxCell id="vcjG7mU_yD_2sY2w4m83-127" value="&lt;p class=&quot;MsoNormal&quot;&gt;&lt;span style=&quot;mso-spacerun:&#39;yes&#39;;font-family:&#39;Times New Roman&#39;;mso-fareast-font-family:Consolas;&#xa;color:rgb(0,0,0);font-weight:normal;font-size:12.0000pt;&#xa;mso-font-kerning:0.0000pt;background:rgb(255,255,255);mso-shading:rgb(255,255,255);&quot;&gt;PrescriptionID&lt;/span&gt;&lt;/p&gt;" style="ellipse;whiteSpace=wrap;html=1;" vertex="1" parent="1">
          <mxGeometry x="2754" y="558" width="125" height="43" as="geometry" />
        </mxCell>
        <mxCell id="vcjG7mU_yD_2sY2w4m83-128" value="&lt;p class=&quot;MsoNormal&quot;&gt;&lt;span style=&quot;mso-spacerun:&#39;yes&#39;;font-family:&#39;Times New Roman&#39;;mso-fareast-font-family:Consolas;&#xa;color:rgb(0,0,0);font-weight:normal;font-size:12.0000pt;&#xa;mso-font-kerning:0.0000pt;background:rgb(255,255,255);mso-shading:rgb(255,255,255);&quot;&gt;MedicineName&lt;/span&gt;&lt;/p&gt;" style="ellipse;whiteSpace=wrap;html=1;" vertex="1" parent="1">
          <mxGeometry x="2846" y="601" width="123" height="43" as="geometry" />
        </mxCell>
        <mxCell id="vcjG7mU_yD_2sY2w4m83-137" style="edgeStyle=orthogonalEdgeStyle;rounded=0;orthogonalLoop=1;jettySize=auto;html=1;exitX=0;exitY=0.5;exitDx=0;exitDy=0;entryX=1;entryY=0.5;entryDx=0;entryDy=0;endArrow=none;endFill=0;" edge="1" parent="1" source="vcjG7mU_yD_2sY2w4m83-129" target="vcjG7mU_yD_2sY2w4m83-6">
          <mxGeometry relative="1" as="geometry">
            <Array as="points">
              <mxPoint x="2848" y="671" />
              <mxPoint x="2848" y="648" />
            </Array>
          </mxGeometry>
        </mxCell>
        <mxCell id="vcjG7mU_yD_2sY2w4m83-129" value="&lt;p class=&quot;MsoNormal&quot;&gt;&lt;span style=&quot;mso-spacerun:&#39;yes&#39;;font-family:&#39;Times New Roman&#39;;mso-fareast-font-family:Consolas;&#xa;color:rgb(0,0,0);font-weight:normal;font-size:12.0000pt;&#xa;mso-font-kerning:0.0000pt;background:rgb(255,255,255);mso-shading:rgb(255,255,255);&quot;&gt;Dosage&lt;/span&gt;&lt;/p&gt;" style="ellipse;whiteSpace=wrap;html=1;" vertex="1" parent="1">
          <mxGeometry x="2888" y="651" width="89" height="40" as="geometry" />
        </mxCell>
        <mxCell id="vcjG7mU_yD_2sY2w4m83-130" value="&lt;p class=&quot;MsoNormal&quot;&gt;&lt;span style=&quot;mso-spacerun:&#39;yes&#39;;font-family:&#39;Times New Roman&#39;;mso-fareast-font-family:Consolas;&#xa;color:rgb(0,0,0);font-weight:normal;font-size:12.0000pt;&#xa;mso-font-kerning:0.0000pt;background:rgb(255,255,255);mso-shading:rgb(255,255,255);&quot;&gt;Frequency&lt;/span&gt;&lt;/p&gt;" style="ellipse;whiteSpace=wrap;html=1;" vertex="1" parent="1">
          <mxGeometry x="2897" y="696.5" width="83" height="41" as="geometry" />
        </mxCell>
        <mxCell id="vcjG7mU_yD_2sY2w4m83-139" style="edgeStyle=orthogonalEdgeStyle;rounded=0;orthogonalLoop=1;jettySize=auto;html=1;exitX=0;exitY=0;exitDx=0;exitDy=0;entryX=1;entryY=0.75;entryDx=0;entryDy=0;endArrow=none;endFill=0;" edge="1" parent="1" source="vcjG7mU_yD_2sY2w4m83-131" target="vcjG7mU_yD_2sY2w4m83-6">
          <mxGeometry relative="1" as="geometry">
            <Array as="points">
              <mxPoint x="2823" y="740" />
              <mxPoint x="2823" y="666" />
            </Array>
          </mxGeometry>
        </mxCell>
        <mxCell id="vcjG7mU_yD_2sY2w4m83-131" value="&lt;p class=&quot;MsoNormal&quot;&gt;&lt;span style=&quot;mso-spacerun:&#39;yes&#39;;font-family:&#39;Times New Roman&#39;;mso-fareast-font-family:Consolas;&#xa;color:rgb(0,0,0);font-weight:normal;font-size:12.0000pt;&#xa;mso-font-kerning:0.0000pt;background:rgb(255,255,255);mso-shading:rgb(255,255,255);&quot;&gt;Duration&lt;/span&gt;&lt;/p&gt;" style="ellipse;whiteSpace=wrap;html=1;" vertex="1" parent="1">
          <mxGeometry x="2836" y="733.5" width="90" height="42" as="geometry" />
        </mxCell>
        <mxCell id="vcjG7mU_yD_2sY2w4m83-132" value="&lt;p class=&quot;MsoNormal&quot;&gt;&lt;span style=&quot;mso-spacerun:&#39;yes&#39;;font-family:&#39;Times New Roman&#39;;mso-fareast-font-family:Consolas;&#xa;color:rgb(0,0,0);font-weight:normal;font-size:12.0000pt;&#xa;mso-font-kerning:0.0000pt;background:rgb(255,255,255);mso-shading:rgb(255,255,255);&quot;&gt;ExpirationDate&lt;/span&gt;&lt;/p&gt;" style="ellipse;whiteSpace=wrap;html=1;" vertex="1" parent="1">
          <mxGeometry x="2759.5" y="770" width="114" height="42" as="geometry" />
        </mxCell>
        <mxCell id="vcjG7mU_yD_2sY2w4m83-133" value="&lt;p class=&quot;MsoNormal&quot;&gt;&lt;span style=&quot;mso-spacerun:&#39;yes&#39;;font-family:&#39;Times New Roman&#39;;mso-fareast-font-family:Consolas;&#xa;color:rgb(0,0,0);font-weight:normal;font-size:12.0000pt;&#xa;mso-font-kerning:0.0000pt;background:rgb(255,255,255);mso-shading:rgb(255,255,255);&quot;&gt;Note&lt;/span&gt;&lt;/p&gt;" style="ellipse;whiteSpace=wrap;html=1;" vertex="1" parent="1">
          <mxGeometry x="2700" y="780" width="54" height="36" as="geometry" />
        </mxCell>
        <mxCell id="vcjG7mU_yD_2sY2w4m83-134" style="edgeStyle=orthogonalEdgeStyle;rounded=0;orthogonalLoop=1;jettySize=auto;html=1;exitX=0;exitY=1;exitDx=0;exitDy=0;entryX=0.686;entryY=0.012;entryDx=0;entryDy=0;entryPerimeter=0;endArrow=none;endFill=0;" edge="1" parent="1" source="vcjG7mU_yD_2sY2w4m83-126" target="vcjG7mU_yD_2sY2w4m83-6">
          <mxGeometry relative="1" as="geometry" />
        </mxCell>
        <mxCell id="vcjG7mU_yD_2sY2w4m83-136" style="edgeStyle=orthogonalEdgeStyle;rounded=0;orthogonalLoop=1;jettySize=auto;html=1;exitX=0;exitY=0.5;exitDx=0;exitDy=0;entryX=1.003;entryY=0.369;entryDx=0;entryDy=0;entryPerimeter=0;endArrow=none;endFill=0;" edge="1" parent="1" source="vcjG7mU_yD_2sY2w4m83-128" target="vcjG7mU_yD_2sY2w4m83-6">
          <mxGeometry relative="1" as="geometry" />
        </mxCell>
        <mxCell id="vcjG7mU_yD_2sY2w4m83-138" style="edgeStyle=orthogonalEdgeStyle;rounded=0;orthogonalLoop=1;jettySize=auto;html=1;exitX=0;exitY=0.5;exitDx=0;exitDy=0;entryX=0.999;entryY=0.652;entryDx=0;entryDy=0;entryPerimeter=0;endArrow=none;endFill=0;" edge="1" parent="1" source="vcjG7mU_yD_2sY2w4m83-130" target="vcjG7mU_yD_2sY2w4m83-6">
          <mxGeometry relative="1" as="geometry">
            <Array as="points">
              <mxPoint x="2839" y="717" />
              <mxPoint x="2839" y="659" />
            </Array>
          </mxGeometry>
        </mxCell>
        <mxCell id="vcjG7mU_yD_2sY2w4m83-140" style="edgeStyle=orthogonalEdgeStyle;rounded=0;orthogonalLoop=1;jettySize=auto;html=1;exitX=0;exitY=0;exitDx=0;exitDy=0;entryX=1.004;entryY=0.841;entryDx=0;entryDy=0;entryPerimeter=0;endArrow=none;endFill=0;" edge="1" parent="1" source="vcjG7mU_yD_2sY2w4m83-132" target="vcjG7mU_yD_2sY2w4m83-6">
          <mxGeometry relative="1" as="geometry">
            <Array as="points">
              <mxPoint x="2761" y="776" />
              <mxPoint x="2761" y="672" />
            </Array>
          </mxGeometry>
        </mxCell>
        <mxCell id="vcjG7mU_yD_2sY2w4m83-141" style="edgeStyle=orthogonalEdgeStyle;rounded=0;orthogonalLoop=1;jettySize=auto;html=1;exitX=0.5;exitY=0;exitDx=0;exitDy=0;entryX=0.897;entryY=1.006;entryDx=0;entryDy=0;entryPerimeter=0;endArrow=none;endFill=0;" edge="1" parent="1" source="vcjG7mU_yD_2sY2w4m83-133" target="vcjG7mU_yD_2sY2w4m83-6">
          <mxGeometry relative="1" as="geometry" />
        </mxCell>
        <mxCell id="vcjG7mU_yD_2sY2w4m83-146" style="edgeStyle=orthogonalEdgeStyle;rounded=0;orthogonalLoop=1;jettySize=auto;html=1;exitX=0;exitY=0.5;exitDx=0;exitDy=0;entryX=1;entryY=0.5;entryDx=0;entryDy=0;endArrow=none;endFill=0;" edge="1" parent="1" source="vcjG7mU_yD_2sY2w4m83-142" target="vcjG7mU_yD_2sY2w4m83-11">
          <mxGeometry relative="1" as="geometry" />
        </mxCell>
        <mxCell id="vcjG7mU_yD_2sY2w4m83-142" value="&lt;p class=&quot;MsoNormal&quot;&gt;&lt;span style=&quot;mso-spacerun:&#39;yes&#39;;font-family:&#39;Times New Roman&#39;;mso-fareast-font-family:Consolas;&#xa;color:rgb(0,0,0);font-weight:normal;font-size:12.0000pt;&#xa;mso-font-kerning:0.0000pt;background:rgb(255,255,255);mso-shading:rgb(255,255,255);&quot;&gt;PrescriptionID&lt;/span&gt;&lt;/p&gt;" style="ellipse;whiteSpace=wrap;html=1;fontStyle=4" vertex="1" parent="1">
          <mxGeometry x="2806" y="866" width="124" height="49" as="geometry" />
        </mxCell>
        <mxCell id="vcjG7mU_yD_2sY2w4m83-147" style="edgeStyle=orthogonalEdgeStyle;rounded=0;orthogonalLoop=1;jettySize=auto;html=1;exitX=0;exitY=0;exitDx=0;exitDy=0;entryX=1;entryY=0.75;entryDx=0;entryDy=0;endArrow=none;endFill=0;" edge="1" parent="1" source="vcjG7mU_yD_2sY2w4m83-143" target="vcjG7mU_yD_2sY2w4m83-11">
          <mxGeometry relative="1" as="geometry">
            <Array as="points">
              <mxPoint x="2750" y="947" />
              <mxPoint x="2750" y="881" />
            </Array>
          </mxGeometry>
        </mxCell>
        <mxCell id="vcjG7mU_yD_2sY2w4m83-143" value="&lt;p class=&quot;MsoNormal&quot;&gt;&lt;span style=&quot;mso-spacerun:&#39;yes&#39;;font-family:&#39;Times New Roman&#39;;mso-fareast-font-family:Consolas;&#xa;color:rgb(0,0,0);font-weight:normal;font-size:12.0000pt;&#xa;mso-font-kerning:0.0000pt;background:rgb(255,255,255);mso-shading:rgb(255,255,255);&quot;&gt;RecordID&lt;/span&gt;&lt;/p&gt;" style="ellipse;whiteSpace=wrap;html=1;" vertex="1" parent="1">
          <mxGeometry x="2812" y="941" width="102" height="41" as="geometry" />
        </mxCell>
        <mxCell id="vcjG7mU_yD_2sY2w4m83-148" style="edgeStyle=orthogonalEdgeStyle;rounded=0;orthogonalLoop=1;jettySize=auto;html=1;exitX=0;exitY=0;exitDx=0;exitDy=0;entryX=0.75;entryY=1;entryDx=0;entryDy=0;endArrow=none;endFill=0;" edge="1" parent="1" source="vcjG7mU_yD_2sY2w4m83-144" target="vcjG7mU_yD_2sY2w4m83-11">
          <mxGeometry relative="1" as="geometry" />
        </mxCell>
        <mxCell id="vcjG7mU_yD_2sY2w4m83-144" value="&lt;p class=&quot;MsoNormal&quot;&gt;&lt;span style=&quot;mso-spacerun:&#39;yes&#39;;font-family:&#39;Times New Roman&#39;;mso-fareast-font-family:Consolas;&#xa;color:rgb(0,0,0);font-weight:normal;font-size:12.0000pt;&#xa;mso-font-kerning:0.0000pt;background:rgb(255,255,255);mso-shading:rgb(255,255,255);&quot;&gt;PrescriptionDate&lt;/span&gt;&lt;/p&gt;" style="ellipse;whiteSpace=wrap;html=1;" vertex="1" parent="1">
          <mxGeometry x="2677" y="982" width="135" height="49" as="geometry" />
        </mxCell>
        <mxCell id="vcjG7mU_yD_2sY2w4m83-149" style="edgeStyle=orthogonalEdgeStyle;rounded=0;orthogonalLoop=1;jettySize=auto;html=1;exitX=0.5;exitY=0;exitDx=0;exitDy=0;entryX=0.5;entryY=1;entryDx=0;entryDy=0;endArrow=none;endFill=0;" edge="1" parent="1" source="vcjG7mU_yD_2sY2w4m83-145" target="vcjG7mU_yD_2sY2w4m83-11">
          <mxGeometry relative="1" as="geometry" />
        </mxCell>
        <mxCell id="vcjG7mU_yD_2sY2w4m83-145" value="&lt;p class=&quot;MsoNormal&quot;&gt;&lt;span style=&quot;mso-spacerun:&#39;yes&#39;;font-family:&#39;Times New Roman&#39;;mso-fareast-font-family:Consolas;&#xa;color:rgb(0,0,0);font-weight:normal;font-size:12.0000pt;&#xa;mso-font-kerning:0.0000pt;background:rgb(255,255,255);mso-shading:rgb(255,255,255);&quot;&gt;Note&lt;/span&gt;&lt;/p&gt;" style="ellipse;whiteSpace=wrap;html=1;" vertex="1" parent="1">
          <mxGeometry x="2586" y="963" width="77" height="44" as="geometry" />
        </mxCell>
        <mxCell id="vcjG7mU_yD_2sY2w4m83-157" style="edgeStyle=orthogonalEdgeStyle;rounded=0;orthogonalLoop=1;jettySize=auto;html=1;entryX=1;entryY=0.5;entryDx=0;entryDy=0;endArrow=none;endFill=0;" edge="1" parent="1" source="vcjG7mU_yD_2sY2w4m83-150" target="vcjG7mU_yD_2sY2w4m83-3">
          <mxGeometry relative="1" as="geometry">
            <Array as="points">
              <mxPoint x="2578" y="1173" />
              <mxPoint x="2578" y="1023" />
            </Array>
          </mxGeometry>
        </mxCell>
        <mxCell id="vcjG7mU_yD_2sY2w4m83-150" value="&lt;p class=&quot;MsoNormal&quot;&gt;&lt;span style=&quot;mso-spacerun:&#39;yes&#39;;font-family:&#39;Times New Roman&#39;;mso-fareast-font-family:Consolas;&#xa;color:rgb(0,0,0);font-weight:normal;font-size:12.0000pt;&#xa;mso-font-kerning:0.0000pt;background:rgb(255,255,255);mso-shading:rgb(255,255,255);&quot;&gt;ID&lt;/span&gt;&lt;/p&gt;" style="ellipse;whiteSpace=wrap;html=1;fontStyle=4" vertex="1" parent="1">
          <mxGeometry x="2604" y="1152" width="75" height="42" as="geometry" />
        </mxCell>
        <mxCell id="vcjG7mU_yD_2sY2w4m83-158" style="edgeStyle=orthogonalEdgeStyle;rounded=0;orthogonalLoop=1;jettySize=auto;html=1;exitX=0;exitY=0;exitDx=0;exitDy=0;entryX=1;entryY=0.75;entryDx=0;entryDy=0;endArrow=none;endFill=0;" edge="1" parent="1" source="vcjG7mU_yD_2sY2w4m83-151" target="vcjG7mU_yD_2sY2w4m83-3">
          <mxGeometry relative="1" as="geometry">
            <Array as="points">
              <mxPoint x="2537" y="1209" />
              <mxPoint x="2537" y="1132" />
              <mxPoint x="2538" y="1132" />
              <mxPoint x="2538" y="1042" />
            </Array>
          </mxGeometry>
        </mxCell>
        <mxCell id="vcjG7mU_yD_2sY2w4m83-151" value="&lt;p class=&quot;MsoNormal&quot;&gt;&lt;span style=&quot;mso-spacerun:&#39;yes&#39;;font-family:&#39;Times New Roman&#39;;mso-fareast-font-family:Consolas;&#xa;color:rgb(0,0,0);font-weight:normal;font-size:12.0000pt;&#xa;mso-font-kerning:0.0000pt;background:rgb(255,255,255);mso-shading:rgb(255,255,255);&quot;&gt;RecordID&lt;/span&gt;&lt;/p&gt;" style="ellipse;whiteSpace=wrap;html=1;" vertex="1" parent="1">
          <mxGeometry x="2551" y="1202" width="95" height="49" as="geometry" />
        </mxCell>
        <mxCell id="vcjG7mU_yD_2sY2w4m83-152" value="&lt;p class=&quot;MsoNormal&quot;&gt;&lt;span style=&quot;mso-spacerun:&#39;yes&#39;;font-family:&#39;Times New Roman&#39;;mso-fareast-font-family:Consolas;&#xa;color:rgb(0,0,0);font-weight:normal;font-size:12.0000pt;&#xa;mso-font-kerning:0.0000pt;background:rgb(255,255,255);mso-shading:rgb(255,255,255);&quot;&gt;Time&lt;/span&gt;&lt;/p&gt;" style="ellipse;whiteSpace=wrap;html=1;" vertex="1" parent="1">
          <mxGeometry x="2476" y="1248" width="75" height="43" as="geometry" />
        </mxCell>
        <mxCell id="vcjG7mU_yD_2sY2w4m83-153" value="&lt;p class=&quot;MsoNormal&quot;&gt;&lt;span style=&quot;mso-spacerun:&#39;yes&#39;;font-family:&#39;Times New Roman&#39;;mso-fareast-font-family:Consolas;&#xa;color:rgb(0,0,0);font-weight:normal;font-size:12.0000pt;&#xa;mso-font-kerning:0.0000pt;background:rgb(255,255,255);mso-shading:rgb(255,255,255);&quot;&gt;StaffID&lt;/span&gt;&lt;/p&gt;" style="ellipse;whiteSpace=wrap;html=1;" vertex="1" parent="1">
          <mxGeometry x="2397" y="1277" width="75" height="48" as="geometry" />
        </mxCell>
        <mxCell id="vcjG7mU_yD_2sY2w4m83-161" style="edgeStyle=orthogonalEdgeStyle;rounded=0;orthogonalLoop=1;jettySize=auto;html=1;exitX=1;exitY=0;exitDx=0;exitDy=0;entryX=0.75;entryY=1;entryDx=0;entryDy=0;endArrow=none;endFill=0;" edge="1" parent="1" source="vcjG7mU_yD_2sY2w4m83-154" target="vcjG7mU_yD_2sY2w4m83-3">
          <mxGeometry relative="1" as="geometry">
            <Array as="points">
              <mxPoint x="2374" y="1228" />
              <mxPoint x="2439" y="1228" />
            </Array>
          </mxGeometry>
        </mxCell>
        <mxCell id="vcjG7mU_yD_2sY2w4m83-154" value="&lt;p class=&quot;MsoNormal&quot;&gt;&lt;span style=&quot;mso-spacerun:&#39;yes&#39;;font-family:&#39;Times New Roman&#39;;mso-fareast-font-family:Consolas;&#xa;color:rgb(0,0,0);font-weight:normal;font-size:12.0000pt;&#xa;mso-font-kerning:0.0000pt;background:rgb(255,255,255);mso-shading:rgb(255,255,255);&quot;&gt;RoomName&lt;/span&gt;&lt;/p&gt;" style="ellipse;whiteSpace=wrap;html=1;" vertex="1" parent="1">
          <mxGeometry x="2285" y="1287" width="104" height="43" as="geometry" />
        </mxCell>
        <mxCell id="vcjG7mU_yD_2sY2w4m83-162" style="edgeStyle=orthogonalEdgeStyle;rounded=0;orthogonalLoop=1;jettySize=auto;html=1;entryX=0.5;entryY=1;entryDx=0;entryDy=0;endArrow=none;endFill=0;" edge="1" parent="1" source="vcjG7mU_yD_2sY2w4m83-155" target="vcjG7mU_yD_2sY2w4m83-3">
          <mxGeometry relative="1" as="geometry">
            <Array as="points">
              <mxPoint x="2240" y="1260" />
              <mxPoint x="2361" y="1260" />
            </Array>
          </mxGeometry>
        </mxCell>
        <mxCell id="vcjG7mU_yD_2sY2w4m83-155" value="&lt;p class=&quot;MsoNormal&quot;&gt;&lt;span style=&quot;mso-spacerun:&#39;yes&#39;;font-family:&#39;Times New Roman&#39;;mso-fareast-font-family:Consolas;&#xa;color:rgb(0,0,0);font-weight:normal;font-size:12.0000pt;&#xa;mso-font-kerning:0.0000pt;background:rgb(255,255,255);mso-shading:rgb(255,255,255);&quot;&gt;Result&lt;/span&gt;&lt;/p&gt;" style="ellipse;whiteSpace=wrap;html=1;" vertex="1" parent="1">
          <mxGeometry x="2204" y="1286" width="71" height="39" as="geometry" />
        </mxCell>
        <mxCell id="vcjG7mU_yD_2sY2w4m83-163" style="edgeStyle=orthogonalEdgeStyle;rounded=0;orthogonalLoop=1;jettySize=auto;html=1;exitX=1;exitY=0;exitDx=0;exitDy=0;entryX=0.25;entryY=1;entryDx=0;entryDy=0;endArrow=none;endFill=0;" edge="1" parent="1" source="vcjG7mU_yD_2sY2w4m83-156" target="vcjG7mU_yD_2sY2w4m83-3">
          <mxGeometry relative="1" as="geometry" />
        </mxCell>
        <mxCell id="vcjG7mU_yD_2sY2w4m83-156" value="&lt;p class=&quot;MsoNormal&quot;&gt;&lt;span style=&quot;mso-spacerun:&#39;yes&#39;;font-family:&#39;Times New Roman&#39;;mso-fareast-font-family:Consolas;&#xa;color:rgb(0,0,0);font-weight:normal;font-size:12.0000pt;&#xa;mso-font-kerning:0.0000pt;background:rgb(255,255,255);mso-shading:rgb(255,255,255);&quot;&gt;Note&lt;/span&gt;&lt;/p&gt;" style="ellipse;whiteSpace=wrap;html=1;" vertex="1" parent="1">
          <mxGeometry x="2156" y="1218" width="67" height="46" as="geometry" />
        </mxCell>
        <mxCell id="vcjG7mU_yD_2sY2w4m83-159" style="edgeStyle=orthogonalEdgeStyle;rounded=0;orthogonalLoop=1;jettySize=auto;html=1;exitX=0.5;exitY=0;exitDx=0;exitDy=0;entryX=0.939;entryY=1.005;entryDx=0;entryDy=0;entryPerimeter=0;endArrow=none;endFill=0;" edge="1" parent="1" source="vcjG7mU_yD_2sY2w4m83-152" target="vcjG7mU_yD_2sY2w4m83-3">
          <mxGeometry relative="1" as="geometry" />
        </mxCell>
        <mxCell id="vcjG7mU_yD_2sY2w4m83-160" style="edgeStyle=orthogonalEdgeStyle;rounded=0;orthogonalLoop=1;jettySize=auto;html=1;entryX=0.853;entryY=1;entryDx=0;entryDy=0;entryPerimeter=0;endArrow=none;endFill=0;" edge="1" parent="1" source="vcjG7mU_yD_2sY2w4m83-153" target="vcjG7mU_yD_2sY2w4m83-3">
          <mxGeometry relative="1" as="geometry">
            <Array as="points">
              <mxPoint x="2435" y="1239" />
              <mxPoint x="2472" y="1239" />
            </Array>
          </mxGeometry>
        </mxCell>
        <mxCell id="vcjG7mU_yD_2sY2w4m83-164" value="&lt;p class=&quot;MsoNormal&quot;&gt;&lt;span style=&quot;mso-spacerun:&#39;yes&#39;;font-family:&#39;Times New Roman&#39;;mso-fareast-font-family:Consolas;&#xa;color:rgb(0,0,0);font-weight:normal;font-size:12.0000pt;&#xa;mso-font-kerning:0.0000pt;background:rgb(255,255,255);mso-shading:rgb(255,255,255);&quot;&gt;StaffID&lt;/span&gt;&lt;/p&gt;" style="ellipse;whiteSpace=wrap;html=1;fontStyle=4" vertex="1" parent="1">
          <mxGeometry x="1873" y="1270" width="68" height="46" as="geometry" />
        </mxCell>
        <mxCell id="vcjG7mU_yD_2sY2w4m83-178" style="edgeStyle=orthogonalEdgeStyle;rounded=0;orthogonalLoop=1;jettySize=auto;html=1;exitX=0;exitY=0.5;exitDx=0;exitDy=0;entryX=1;entryY=0.25;entryDx=0;entryDy=0;endArrow=none;endFill=0;" edge="1" parent="1" source="vcjG7mU_yD_2sY2w4m83-167" target="vcjG7mU_yD_2sY2w4m83-8">
          <mxGeometry relative="1" as="geometry">
            <Array as="points">
              <mxPoint x="1926" y="1327" />
              <mxPoint x="1853" y="1327" />
            </Array>
          </mxGeometry>
        </mxCell>
        <mxCell id="vcjG7mU_yD_2sY2w4m83-167" value="&lt;p class=&quot;MsoNormal&quot;&gt;&lt;span style=&quot;mso-spacerun:&#39;yes&#39;;font-family:&#39;Times New Roman&#39;;mso-fareast-font-family:Consolas;&#xa;color:rgb(0,0,0);font-weight:normal;font-size:12.0000pt;&#xa;mso-font-kerning:0.0000pt;background:rgb(255,255,255);mso-shading:rgb(255,255,255);&quot;&gt;FullName&lt;/span&gt;&lt;/p&gt;" style="ellipse;whiteSpace=wrap;html=1;" vertex="1" parent="1">
          <mxGeometry x="1926.5" y="1305" width="89" height="40" as="geometry" />
        </mxCell>
        <mxCell id="vcjG7mU_yD_2sY2w4m83-168" value="&lt;p class=&quot;MsoNormal&quot;&gt;&lt;span style=&quot;mso-spacerun:&#39;yes&#39;;font-family:&#39;Times New Roman&#39;;mso-fareast-font-family:Consolas;&#xa;color:rgb(0,0,0);font-weight:normal;font-size:12.0000pt;&#xa;mso-font-kerning:0.0000pt;background:rgb(255,255,255);mso-shading:rgb(255,255,255);&quot;&gt;DOB&lt;/span&gt;&lt;/p&gt;" style="ellipse;whiteSpace=wrap;html=1;" vertex="1" parent="1">
          <mxGeometry x="1989" y="1345" width="60" height="32" as="geometry" />
        </mxCell>
        <mxCell id="vcjG7mU_yD_2sY2w4m83-169" value="&lt;p class=&quot;MsoNormal&quot;&gt;&lt;span style=&quot;mso-spacerun:&#39;yes&#39;;font-family:&#39;Times New Roman&#39;;mso-fareast-font-family:Consolas;&#xa;color:rgb(0,0,0);font-weight:normal;font-size:12.0000pt;&#xa;mso-font-kerning:0.0000pt;background:rgb(255,255,255);mso-shading:rgb(255,255,255);&quot;&gt;Sex&lt;/span&gt;&lt;/p&gt;" style="ellipse;whiteSpace=wrap;html=1;" vertex="1" parent="1">
          <mxGeometry x="1974" y="1380.5" width="47" height="33" as="geometry" />
        </mxCell>
        <mxCell id="vcjG7mU_yD_2sY2w4m83-181" style="edgeStyle=orthogonalEdgeStyle;rounded=0;orthogonalLoop=1;jettySize=auto;html=1;exitX=0;exitY=0.5;exitDx=0;exitDy=0;entryX=1;entryY=0.5;entryDx=0;entryDy=0;endArrow=none;endFill=0;" edge="1" parent="1" source="vcjG7mU_yD_2sY2w4m83-170" target="vcjG7mU_yD_2sY2w4m83-8">
          <mxGeometry relative="1" as="geometry">
            <Array as="points">
              <mxPoint x="1904" y="1436" />
              <mxPoint x="1904" y="1349" />
            </Array>
          </mxGeometry>
        </mxCell>
        <mxCell id="vcjG7mU_yD_2sY2w4m83-170" value="&lt;p class=&quot;MsoNormal&quot;&gt;&lt;span style=&quot;mso-spacerun:&#39;yes&#39;;font-family:&#39;Times New Roman&#39;;mso-fareast-font-family:Consolas;&#xa;color:rgb(0,0,0);font-weight:normal;font-size:12.0000pt;&#xa;mso-font-kerning:0.0000pt;background:rgb(255,255,255);mso-shading:rgb(255,255,255);&quot;&gt;CitizenIdentification&lt;/span&gt;&lt;/p&gt;" style="ellipse;whiteSpace=wrap;html=1;" vertex="1" parent="1">
          <mxGeometry x="1971" y="1413.5" width="153" height="44" as="geometry" />
        </mxCell>
        <mxCell id="vcjG7mU_yD_2sY2w4m83-171" value="&lt;p class=&quot;MsoNormal&quot;&gt;&lt;span style=&quot;mso-spacerun:&#39;yes&#39;;font-family:&#39;Times New Roman&#39;;mso-fareast-font-family:Consolas;&#xa;color:rgb(0,0,0);font-weight:normal;font-size:12.0000pt;&#xa;mso-font-kerning:0.0000pt;background:rgb(255,255,255);mso-shading:rgb(255,255,255);&quot;&gt;Address&lt;/span&gt;&lt;/p&gt;" style="ellipse;whiteSpace=wrap;html=1;" vertex="1" parent="1">
          <mxGeometry x="1964" y="1460" width="68" height="44" as="geometry" />
        </mxCell>
        <mxCell id="vcjG7mU_yD_2sY2w4m83-172" value="&lt;p class=&quot;MsoNormal&quot;&gt;&lt;span style=&quot;mso-spacerun:&#39;yes&#39;;font-family:&#39;Times New Roman&#39;;mso-fareast-font-family:Consolas;&#xa;color:rgb(0,0,0);font-weight:normal;font-size:12.0000pt;&#xa;mso-font-kerning:0.0000pt;background:rgb(255,255,255);mso-shading:rgb(255,255,255);&quot;&gt;PhoneNumber&lt;/span&gt;&lt;/p&gt;" style="ellipse;whiteSpace=wrap;html=1;" vertex="1" parent="1">
          <mxGeometry x="1919" y="1507" width="113" height="47" as="geometry" />
        </mxCell>
        <mxCell id="vcjG7mU_yD_2sY2w4m83-184" style="edgeStyle=orthogonalEdgeStyle;rounded=0;orthogonalLoop=1;jettySize=auto;html=1;exitX=0;exitY=0;exitDx=0;exitDy=0;entryX=1;entryY=0.75;entryDx=0;entryDy=0;endArrow=none;endFill=0;" edge="1" parent="1" source="vcjG7mU_yD_2sY2w4m83-173" target="vcjG7mU_yD_2sY2w4m83-8">
          <mxGeometry relative="1" as="geometry">
            <Array as="points">
              <mxPoint x="1874" y="1565" />
              <mxPoint x="1874" y="1372" />
            </Array>
          </mxGeometry>
        </mxCell>
        <mxCell id="vcjG7mU_yD_2sY2w4m83-173" value="&lt;p class=&quot;MsoNormal&quot;&gt;&lt;span style=&quot;mso-spacerun:&#39;yes&#39;;font-family:&#39;Times New Roman&#39;;mso-fareast-font-family:Consolas;&#xa;color:rgb(0,0,0);font-weight:normal;font-size:12.0000pt;&#xa;mso-font-kerning:0.0000pt;background:rgb(255,255,255);mso-shading:rgb(255,255,255);&quot;&gt;Email&lt;/span&gt;&lt;/p&gt;" style="ellipse;whiteSpace=wrap;html=1;" vertex="1" parent="1">
          <mxGeometry x="1930" y="1560" width="81" height="34" as="geometry" />
        </mxCell>
        <mxCell id="vcjG7mU_yD_2sY2w4m83-174" value="&lt;p class=&quot;MsoNormal&quot;&gt;&lt;span style=&quot;mso-spacerun:&#39;yes&#39;;font-family:&#39;Times New Roman&#39;;mso-fareast-font-family:Consolas;&#xa;color:rgb(0,0,0);font-weight:normal;font-size:12.0000pt;&#xa;mso-font-kerning:0.0000pt;background:rgb(255,255,255);mso-shading:rgb(255,255,255);&quot;&gt;DepartmentID&lt;/span&gt;&lt;/p&gt;" style="ellipse;whiteSpace=wrap;html=1;" vertex="1" parent="1">
          <mxGeometry x="1867" y="1598" width="117" height="41" as="geometry" />
        </mxCell>
        <mxCell id="vcjG7mU_yD_2sY2w4m83-175" value="&lt;p class=&quot;MsoNormal&quot;&gt;&lt;span style=&quot;mso-spacerun:&#39;yes&#39;;font-family:&#39;Times New Roman&#39;;mso-fareast-font-family:Consolas;&#xa;color:rgb(0,0,0);font-weight:normal;font-size:12.0000pt;&#xa;mso-font-kerning:0.0000pt;background:rgb(255,255,255);mso-shading:rgb(255,255,255);&quot;&gt;Position&lt;/span&gt;&lt;/p&gt;" style="ellipse;whiteSpace=wrap;html=1;" vertex="1" parent="1">
          <mxGeometry x="1812" y="1630" width="75" height="43" as="geometry" />
        </mxCell>
        <mxCell id="vcjG7mU_yD_2sY2w4m83-176" value="&lt;p class=&quot;MsoNormal&quot;&gt;&lt;span style=&quot;mso-spacerun:&#39;yes&#39;;font-family:&#39;Times New Roman&#39;;mso-fareast-font-family:Consolas;&#xa;color:rgb(0,0,0);font-weight:normal;font-size:12.0000pt;&#xa;mso-font-kerning:0.0000pt;background:rgb(255,255,255);mso-shading:rgb(255,255,255);&quot;&gt;Note&lt;/span&gt;&lt;/p&gt;" style="ellipse;whiteSpace=wrap;html=1;" vertex="1" parent="1">
          <mxGeometry x="1777" y="1520" width="63" height="31" as="geometry" />
        </mxCell>
        <mxCell id="vcjG7mU_yD_2sY2w4m83-177" style="edgeStyle=orthogonalEdgeStyle;rounded=0;orthogonalLoop=1;jettySize=auto;html=1;exitX=0;exitY=0;exitDx=0;exitDy=0;entryX=1;entryY=0.179;entryDx=0;entryDy=0;entryPerimeter=0;endArrow=none;endFill=0;" edge="1" parent="1" source="vcjG7mU_yD_2sY2w4m83-164" target="vcjG7mU_yD_2sY2w4m83-8">
          <mxGeometry relative="1" as="geometry" />
        </mxCell>
        <mxCell id="vcjG7mU_yD_2sY2w4m83-179" style="edgeStyle=orthogonalEdgeStyle;rounded=0;orthogonalLoop=1;jettySize=auto;html=1;exitX=0;exitY=0;exitDx=0;exitDy=0;entryX=0.999;entryY=0.344;entryDx=0;entryDy=0;entryPerimeter=0;endArrow=none;endFill=0;" edge="1" parent="1" source="vcjG7mU_yD_2sY2w4m83-168" target="vcjG7mU_yD_2sY2w4m83-8">
          <mxGeometry relative="1" as="geometry">
            <Array as="points">
              <mxPoint x="1919" y="1350" />
              <mxPoint x="1919" y="1335" />
            </Array>
          </mxGeometry>
        </mxCell>
        <mxCell id="vcjG7mU_yD_2sY2w4m83-180" style="edgeStyle=orthogonalEdgeStyle;rounded=0;orthogonalLoop=1;jettySize=auto;html=1;exitX=0;exitY=0;exitDx=0;exitDy=0;entryX=1.005;entryY=0.416;entryDx=0;entryDy=0;entryPerimeter=0;endArrow=none;endFill=0;" edge="1" parent="1" source="vcjG7mU_yD_2sY2w4m83-169" target="vcjG7mU_yD_2sY2w4m83-8">
          <mxGeometry relative="1" as="geometry">
            <Array as="points">
              <mxPoint x="1913" y="1385" />
              <mxPoint x="1913" y="1341" />
            </Array>
          </mxGeometry>
        </mxCell>
        <mxCell id="vcjG7mU_yD_2sY2w4m83-182" style="edgeStyle=orthogonalEdgeStyle;rounded=0;orthogonalLoop=1;jettySize=auto;html=1;exitX=0;exitY=0;exitDx=0;exitDy=0;entryX=1.003;entryY=0.592;entryDx=0;entryDy=0;entryPerimeter=0;endArrow=none;endFill=0;" edge="1" parent="1" source="vcjG7mU_yD_2sY2w4m83-171" target="vcjG7mU_yD_2sY2w4m83-8">
          <mxGeometry relative="1" as="geometry">
            <Array as="points">
              <mxPoint x="1897" y="1466" />
              <mxPoint x="1897" y="1358" />
            </Array>
          </mxGeometry>
        </mxCell>
        <mxCell id="vcjG7mU_yD_2sY2w4m83-183" style="edgeStyle=orthogonalEdgeStyle;rounded=0;orthogonalLoop=1;jettySize=auto;html=1;exitX=0;exitY=0;exitDx=0;exitDy=0;entryX=1.001;entryY=0.672;entryDx=0;entryDy=0;entryPerimeter=0;endArrow=none;endFill=0;" edge="1" parent="1" source="vcjG7mU_yD_2sY2w4m83-172" target="vcjG7mU_yD_2sY2w4m83-8">
          <mxGeometry relative="1" as="geometry">
            <Array as="points">
              <mxPoint x="1887" y="1514" />
              <mxPoint x="1887" y="1365" />
            </Array>
          </mxGeometry>
        </mxCell>
        <mxCell id="vcjG7mU_yD_2sY2w4m83-185" style="edgeStyle=orthogonalEdgeStyle;rounded=0;orthogonalLoop=1;jettySize=auto;html=1;exitX=0;exitY=0;exitDx=0;exitDy=0;entryX=1.001;entryY=0.828;entryDx=0;entryDy=0;entryPerimeter=0;endArrow=none;endFill=0;" edge="1" parent="1" source="vcjG7mU_yD_2sY2w4m83-174" target="vcjG7mU_yD_2sY2w4m83-8">
          <mxGeometry relative="1" as="geometry">
            <Array as="points">
              <mxPoint x="1859" y="1604" />
              <mxPoint x="1859" y="1379" />
            </Array>
          </mxGeometry>
        </mxCell>
        <mxCell id="vcjG7mU_yD_2sY2w4m83-186" style="edgeStyle=orthogonalEdgeStyle;rounded=0;orthogonalLoop=1;jettySize=auto;html=1;exitX=0.5;exitY=0;exitDx=0;exitDy=0;entryX=0.994;entryY=0.876;entryDx=0;entryDy=0;entryPerimeter=0;endArrow=none;endFill=0;" edge="1" parent="1" source="vcjG7mU_yD_2sY2w4m83-175" target="vcjG7mU_yD_2sY2w4m83-8">
          <mxGeometry relative="1" as="geometry" />
        </mxCell>
        <mxCell id="vcjG7mU_yD_2sY2w4m83-187" style="edgeStyle=orthogonalEdgeStyle;rounded=0;orthogonalLoop=1;jettySize=auto;html=1;entryX=0.913;entryY=1;entryDx=0;entryDy=0;entryPerimeter=0;endArrow=none;endFill=0;" edge="1" parent="1" source="vcjG7mU_yD_2sY2w4m83-176" target="vcjG7mU_yD_2sY2w4m83-8">
          <mxGeometry relative="1" as="geometry" />
        </mxCell>
        <mxCell id="vcjG7mU_yD_2sY2w4m83-193" style="edgeStyle=orthogonalEdgeStyle;rounded=0;orthogonalLoop=1;jettySize=auto;html=1;exitX=1;exitY=0.5;exitDx=0;exitDy=0;entryX=0.25;entryY=0;entryDx=0;entryDy=0;endArrow=none;endFill=0;" edge="1" parent="1" source="vcjG7mU_yD_2sY2w4m83-188" target="vcjG7mU_yD_2sY2w4m83-9">
          <mxGeometry relative="1" as="geometry" />
        </mxCell>
        <mxCell id="vcjG7mU_yD_2sY2w4m83-188" value="&lt;p class=&quot;MsoNormal&quot;&gt;&lt;span style=&quot;mso-spacerun:&#39;yes&#39;;font-family:&#39;Times New Roman&#39;;mso-fareast-font-family:Consolas;&#xa;color:rgb(0,0,0);font-weight:normal;font-size:12.0000pt;&#xa;mso-font-kerning:0.0000pt;background:rgb(255,255,255);mso-shading:rgb(255,255,255);&quot;&gt;RoomName&lt;/span&gt;&lt;/p&gt;" style="ellipse;whiteSpace=wrap;html=1;fontStyle=4" vertex="1" parent="1">
          <mxGeometry x="947" y="1316" width="118" height="44" as="geometry" />
        </mxCell>
        <mxCell id="vcjG7mU_yD_2sY2w4m83-189" value="&lt;p class=&quot;MsoNormal&quot;&gt;&lt;span style=&quot;mso-spacerun:&#39;yes&#39;;font-family:&#39;Times New Roman&#39;;mso-fareast-font-family:Consolas;&#xa;color:rgb(0,0,0);font-weight:normal;font-size:12.0000pt;&#xa;mso-font-kerning:0.0000pt;background:rgb(255,255,255);mso-shading:rgb(255,255,255);&quot;&gt;DepartmentID&lt;/span&gt;&lt;/p&gt;" style="ellipse;whiteSpace=wrap;html=1;" vertex="1" parent="1">
          <mxGeometry x="991" y="1251" width="132" height="47" as="geometry" />
        </mxCell>
        <mxCell id="vcjG7mU_yD_2sY2w4m83-195" style="edgeStyle=orthogonalEdgeStyle;rounded=0;orthogonalLoop=1;jettySize=auto;html=1;exitX=1;exitY=0.5;exitDx=0;exitDy=0;entryX=0.5;entryY=0;entryDx=0;entryDy=0;endArrow=none;endFill=0;" edge="1" parent="1" source="vcjG7mU_yD_2sY2w4m83-190" target="vcjG7mU_yD_2sY2w4m83-9">
          <mxGeometry relative="1" as="geometry">
            <Array as="points">
              <mxPoint x="1242" y="1225" />
            </Array>
          </mxGeometry>
        </mxCell>
        <mxCell id="vcjG7mU_yD_2sY2w4m83-190" value="&lt;p class=&quot;MsoNormal&quot;&gt;&lt;span style=&quot;mso-spacerun:&#39;yes&#39;;font-family:&#39;Times New Roman&#39;;mso-fareast-font-family:Consolas;&#xa;color:rgb(0,0,0);font-weight:normal;font-size:12.0000pt;&#xa;mso-font-kerning:0.0000pt;background:rgb(255,255,255);mso-shading:rgb(255,255,255);&quot;&gt;RoomType&lt;/span&gt;&lt;/p&gt;" style="ellipse;whiteSpace=wrap;html=1;" vertex="1" parent="1">
          <mxGeometry x="1108" y="1202" width="122" height="46" as="geometry" />
        </mxCell>
        <mxCell id="vcjG7mU_yD_2sY2w4m83-191" value="&lt;p class=&quot;MsoNormal&quot;&gt;&lt;span style=&quot;mso-spacerun:&#39;yes&#39;;font-family:&#39;Times New Roman&#39;;mso-fareast-font-family:Consolas;&#xa;color:rgb(0,0,0);font-weight:normal;font-size:12.0000pt;&#xa;mso-font-kerning:0.0000pt;background:rgb(255,255,255);mso-shading:rgb(255,255,255);&quot;&gt;Location&lt;/span&gt;&lt;/p&gt;" style="ellipse;whiteSpace=wrap;html=1;" vertex="1" parent="1">
          <mxGeometry x="1212" y="1164" width="113" height="47" as="geometry" />
        </mxCell>
        <mxCell id="vcjG7mU_yD_2sY2w4m83-197" style="edgeStyle=orthogonalEdgeStyle;rounded=0;orthogonalLoop=1;jettySize=auto;html=1;exitX=0;exitY=1;exitDx=0;exitDy=0;entryX=0.75;entryY=0;entryDx=0;entryDy=0;endArrow=none;endFill=0;" edge="1" parent="1" source="vcjG7mU_yD_2sY2w4m83-192" target="vcjG7mU_yD_2sY2w4m83-9">
          <mxGeometry relative="1" as="geometry">
            <Array as="points">
              <mxPoint x="1327" y="1321" />
              <mxPoint x="1272" y="1321" />
            </Array>
          </mxGeometry>
        </mxCell>
        <mxCell id="vcjG7mU_yD_2sY2w4m83-192" value="&lt;p style=&quot;mso-pagination:widow-orphan;text-align:left;line-height:150%;&#xa;background:rgb(255,255,255);&quot; class=&quot;MsoNormal&quot;&gt;&lt;span style=&quot;mso-spacerun:&#39;yes&#39;;font-family:&#39;Times New Roman&#39;;mso-fareast-font-family:Consolas;&#xa;color:rgb(0,0,0);font-weight:normal;font-size:12.0000pt;&#xa;mso-font-kerning:0.0000pt;background:rgb(255,255,255);mso-shading:rgb(255,255,255);&quot;&gt;Note&lt;/span&gt;&lt;span style=&quot;mso-spacerun:&#39;yes&#39;;font-family:&#39;Times New Roman&#39;;mso-fareast-font-family:Consolas;&#xa;color:rgb(0,0,0);font-weight:normal;font-size:12.0000pt;&#xa;mso-font-kerning:0.0000pt;background:rgb(255,255,255);mso-shading:rgb(255,255,255);&quot;&gt;&lt;/span&gt;&lt;/p&gt;" style="ellipse;whiteSpace=wrap;html=1;" vertex="1" parent="1">
          <mxGeometry x="1313" y="1232" width="97" height="38" as="geometry" />
        </mxCell>
        <mxCell id="vcjG7mU_yD_2sY2w4m83-194" style="edgeStyle=orthogonalEdgeStyle;rounded=0;orthogonalLoop=1;jettySize=auto;html=1;exitX=1;exitY=0.5;exitDx=0;exitDy=0;entryX=0.371;entryY=-0.002;entryDx=0;entryDy=0;entryPerimeter=0;endArrow=none;endFill=0;" edge="1" parent="1" source="vcjG7mU_yD_2sY2w4m83-189" target="vcjG7mU_yD_2sY2w4m83-9">
          <mxGeometry relative="1" as="geometry" />
        </mxCell>
        <mxCell id="vcjG7mU_yD_2sY2w4m83-196" style="edgeStyle=orthogonalEdgeStyle;rounded=0;orthogonalLoop=1;jettySize=auto;html=1;exitX=0.5;exitY=1;exitDx=0;exitDy=0;entryX=0.626;entryY=-0.014;entryDx=0;entryDy=0;entryPerimeter=0;endArrow=none;endFill=0;" edge="1" parent="1" source="vcjG7mU_yD_2sY2w4m83-191" target="vcjG7mU_yD_2sY2w4m83-9">
          <mxGeometry relative="1" as="geometry" />
        </mxCell>
        <mxCell id="vcjG7mU_yD_2sY2w4m83-198" value="&lt;p class=&quot;MsoNormal&quot;&gt;&lt;span style=&quot;mso-spacerun:&#39;yes&#39;;font-family:&#39;Times New Roman&#39;;mso-fareast-font-family:Consolas;&#xa;color:rgb(0,0,0);font-weight:normal;font-size:12.0000pt;&#xa;mso-font-kerning:0.0000pt;background:rgb(255,255,255);mso-shading:rgb(255,255,255);&quot;&gt;DepartmentID&lt;/span&gt;&lt;/p&gt;" style="ellipse;whiteSpace=wrap;html=1;fontStyle=4" vertex="1" parent="1">
          <mxGeometry x="1542" y="1747" width="134" height="47" as="geometry" />
        </mxCell>
        <mxCell id="vcjG7mU_yD_2sY2w4m83-205" style="edgeStyle=orthogonalEdgeStyle;rounded=0;orthogonalLoop=1;jettySize=auto;html=1;entryX=0.75;entryY=1;entryDx=0;entryDy=0;endArrow=none;endFill=0;" edge="1" parent="1" source="vcjG7mU_yD_2sY2w4m83-199" target="vcjG7mU_yD_2sY2w4m83-2">
          <mxGeometry relative="1" as="geometry">
            <Array as="points">
              <mxPoint x="1503" y="1684" />
              <mxPoint x="1437" y="1684" />
            </Array>
          </mxGeometry>
        </mxCell>
        <mxCell id="vcjG7mU_yD_2sY2w4m83-199" value="&lt;p class=&quot;MsoNormal&quot;&gt;&lt;span style=&quot;mso-spacerun:&#39;yes&#39;;font-family:&#39;Times New Roman&#39;;mso-fareast-font-family:Consolas;&#xa;color:rgb(0,0,0);font-weight:normal;font-size:12.0000pt;&#xa;mso-font-kerning:0.0000pt;background:rgb(255,255,255);mso-shading:rgb(255,255,255);&quot;&gt;DepartmentName&lt;/span&gt;&lt;/p&gt;" style="ellipse;whiteSpace=wrap;html=1;" vertex="1" parent="1">
          <mxGeometry x="1434" y="1786" width="138" height="56" as="geometry" />
        </mxCell>
        <mxCell id="vcjG7mU_yD_2sY2w4m83-200" value="&lt;p class=&quot;MsoNormal&quot;&gt;&lt;span style=&quot;mso-spacerun:&#39;yes&#39;;font-family:&#39;Times New Roman&#39;;mso-fareast-font-family:Consolas;&#xa;color:rgb(0,0,0);font-weight:normal;font-size:12.0000pt;&#xa;mso-font-kerning:0.0000pt;background:rgb(255,255,255);mso-shading:rgb(255,255,255);&quot;&gt;HeadOfDepartment&lt;/span&gt;&lt;/p&gt;" style="ellipse;whiteSpace=wrap;html=1;" vertex="1" parent="1">
          <mxGeometry x="1313" y="1752" width="143" height="50" as="geometry" />
        </mxCell>
        <mxCell id="vcjG7mU_yD_2sY2w4m83-201" value="&lt;p class=&quot;MsoNormal&quot;&gt;&lt;span style=&quot;mso-spacerun:&#39;yes&#39;;font-family:&#39;Times New Roman&#39;;mso-fareast-font-family:Consolas;&#xa;color:rgb(0,0,0);font-weight:normal;font-size:12.0000pt;&#xa;mso-font-kerning:0.0000pt;background:rgb(255,255,255);mso-shading:rgb(255,255,255);&quot;&gt;Location&lt;/span&gt;&lt;/p&gt;" style="ellipse;whiteSpace=wrap;html=1;" vertex="1" parent="1">
          <mxGeometry x="1219" y="1713" width="110" height="47" as="geometry" />
        </mxCell>
        <mxCell id="vcjG7mU_yD_2sY2w4m83-208" style="edgeStyle=orthogonalEdgeStyle;rounded=0;orthogonalLoop=1;jettySize=auto;html=1;exitX=1;exitY=0;exitDx=0;exitDy=0;entryX=0.25;entryY=1;entryDx=0;entryDy=0;endArrow=none;endFill=0;" edge="1" parent="1" source="vcjG7mU_yD_2sY2w4m83-203" target="vcjG7mU_yD_2sY2w4m83-2">
          <mxGeometry relative="1" as="geometry">
            <Array as="points">
              <mxPoint x="1302" y="1667" />
              <mxPoint x="1302" y="1652" />
              <mxPoint x="1377" y="1652" />
            </Array>
          </mxGeometry>
        </mxCell>
        <mxCell id="vcjG7mU_yD_2sY2w4m83-203" value="&lt;p class=&quot;MsoNormal&quot;&gt;&lt;span style=&quot;mso-spacerun:&#39;yes&#39;;font-family:&#39;Times New Roman&#39;;mso-fareast-font-family:Consolas;&#xa;color:rgb(0,0,0);font-weight:normal;font-size:12.0000pt;&#xa;mso-font-kerning:0.0000pt;background:rgb(255,255,255);mso-shading:rgb(255,255,255);&quot;&gt;PhoneExtension&lt;/span&gt;&lt;/p&gt;" style="ellipse;whiteSpace=wrap;html=1;" vertex="1" parent="1">
          <mxGeometry x="1175" y="1662" width="127" height="36" as="geometry" />
        </mxCell>
        <mxCell id="vcjG7mU_yD_2sY2w4m83-204" style="edgeStyle=orthogonalEdgeStyle;rounded=0;orthogonalLoop=1;jettySize=auto;html=1;entryX=0.889;entryY=0.999;entryDx=0;entryDy=0;entryPerimeter=0;endArrow=none;endFill=0;" edge="1" parent="1" source="vcjG7mU_yD_2sY2w4m83-198" target="vcjG7mU_yD_2sY2w4m83-2">
          <mxGeometry relative="1" as="geometry">
            <Array as="points">
              <mxPoint x="1609" y="1669" />
              <mxPoint x="1454" y="1669" />
            </Array>
          </mxGeometry>
        </mxCell>
        <mxCell id="vcjG7mU_yD_2sY2w4m83-206" style="edgeStyle=orthogonalEdgeStyle;rounded=0;orthogonalLoop=1;jettySize=auto;html=1;entryX=0.578;entryY=1.001;entryDx=0;entryDy=0;entryPerimeter=0;endArrow=none;endFill=0;" edge="1" parent="1" source="vcjG7mU_yD_2sY2w4m83-200" target="vcjG7mU_yD_2sY2w4m83-2">
          <mxGeometry relative="1" as="geometry" />
        </mxCell>
        <mxCell id="vcjG7mU_yD_2sY2w4m83-207" style="edgeStyle=orthogonalEdgeStyle;rounded=0;orthogonalLoop=1;jettySize=auto;html=1;entryX=0.5;entryY=1;entryDx=0;entryDy=0;endArrow=none;endFill=0;" edge="1" parent="1" source="vcjG7mU_yD_2sY2w4m83-201" target="vcjG7mU_yD_2sY2w4m83-2">
          <mxGeometry relative="1" as="geometry">
            <Array as="points">
              <mxPoint x="1366" y="1736" />
              <mxPoint x="1366" y="1665" />
              <mxPoint x="1407" y="1665" />
            </Array>
          </mxGeometry>
        </mxCell>
        <mxCell id="vcjG7mU_yD_2sY2w4m83-216" style="edgeStyle=orthogonalEdgeStyle;rounded=0;orthogonalLoop=1;jettySize=auto;html=1;exitX=1;exitY=0.5;exitDx=0;exitDy=0;entryX=0.25;entryY=0;entryDx=0;entryDy=0;endArrow=none;endFill=0;" edge="1" parent="1" source="vcjG7mU_yD_2sY2w4m83-209" target="vcjG7mU_yD_2sY2w4m83-7">
          <mxGeometry relative="1" as="geometry" />
        </mxCell>
        <mxCell id="vcjG7mU_yD_2sY2w4m83-209" value="&lt;p class=&quot;MsoNormal&quot;&gt;&lt;span style=&quot;mso-spacerun:&#39;yes&#39;;font-family:&#39;Times New Roman&#39;;mso-fareast-font-family:Consolas;&#xa;color:rgb(0,0,0);font-weight:normal;font-size:12.0000pt;&#xa;mso-font-kerning:0.0000pt;background:rgb(255,255,255);mso-shading:rgb(255,255,255);&quot;&gt;ScheduleID&lt;/span&gt;&lt;/p&gt;" style="ellipse;whiteSpace=wrap;html=1;fontStyle=4" vertex="1" parent="1">
          <mxGeometry x="850" y="1582" width="113" height="46" as="geometry" />
        </mxCell>
        <mxCell id="vcjG7mU_yD_2sY2w4m83-217" style="edgeStyle=orthogonalEdgeStyle;rounded=0;orthogonalLoop=1;jettySize=auto;html=1;exitX=1;exitY=0.5;exitDx=0;exitDy=0;entryX=0;entryY=0.25;entryDx=0;entryDy=0;endArrow=none;endFill=0;" edge="1" parent="1" source="vcjG7mU_yD_2sY2w4m83-210" target="vcjG7mU_yD_2sY2w4m83-7">
          <mxGeometry relative="1" as="geometry">
            <Array as="points">
              <mxPoint x="965" y="1646" />
              <mxPoint x="965" y="1746" />
            </Array>
          </mxGeometry>
        </mxCell>
        <mxCell id="vcjG7mU_yD_2sY2w4m83-210" value="&lt;p class=&quot;MsoNormal&quot;&gt;&lt;span style=&quot;mso-spacerun:&#39;yes&#39;;font-family:&#39;Times New Roman&#39;;mso-fareast-font-family:Consolas;&#xa;color:rgb(0,0,0);font-weight:normal;font-size:12.0000pt;&#xa;mso-font-kerning:0.0000pt;background:rgb(255,255,255);mso-shading:rgb(255,255,255);&quot;&gt;StaffID&lt;/span&gt;&lt;/p&gt;" style="ellipse;whiteSpace=wrap;html=1;" vertex="1" parent="1">
          <mxGeometry x="781" y="1628" width="99" height="35" as="geometry" />
        </mxCell>
        <mxCell id="vcjG7mU_yD_2sY2w4m83-218" style="edgeStyle=orthogonalEdgeStyle;rounded=0;orthogonalLoop=1;jettySize=auto;html=1;exitX=1;exitY=0.5;exitDx=0;exitDy=0;entryX=0;entryY=0.5;entryDx=0;entryDy=0;endArrow=none;endFill=0;" edge="1" parent="1" source="vcjG7mU_yD_2sY2w4m83-211" target="vcjG7mU_yD_2sY2w4m83-7">
          <mxGeometry relative="1" as="geometry">
            <Array as="points">
              <mxPoint x="950" y="1694" />
              <mxPoint x="950" y="1761" />
            </Array>
          </mxGeometry>
        </mxCell>
        <mxCell id="vcjG7mU_yD_2sY2w4m83-211" value="&lt;p class=&quot;MsoNormal&quot;&gt;&lt;span style=&quot;mso-spacerun:&#39;yes&#39;;font-family:&#39;Times New Roman&#39;;mso-fareast-font-family:Consolas;&#xa;color:rgb(0,0,0);font-weight:normal;font-size:12.0000pt;&#xa;mso-font-kerning:0.0000pt;background:rgb(255,255,255);mso-shading:rgb(255,255,255);&quot;&gt;WorkDate&lt;/span&gt;&lt;/p&gt;" style="ellipse;whiteSpace=wrap;html=1;" vertex="1" parent="1">
          <mxGeometry x="761" y="1670" width="105" height="49" as="geometry" />
        </mxCell>
        <mxCell id="vcjG7mU_yD_2sY2w4m83-219" style="edgeStyle=orthogonalEdgeStyle;rounded=0;orthogonalLoop=1;jettySize=auto;html=1;exitX=1;exitY=0.5;exitDx=0;exitDy=0;entryX=0;entryY=0.75;entryDx=0;entryDy=0;endArrow=none;endFill=0;" edge="1" parent="1" source="vcjG7mU_yD_2sY2w4m83-212" target="vcjG7mU_yD_2sY2w4m83-7">
          <mxGeometry relative="1" as="geometry" />
        </mxCell>
        <mxCell id="vcjG7mU_yD_2sY2w4m83-212" value="&lt;p class=&quot;MsoNormal&quot;&gt;&lt;span style=&quot;mso-spacerun:&#39;yes&#39;;font-family:&#39;Times New Roman&#39;;mso-fareast-font-family:Consolas;&#xa;color:rgb(0,0,0);font-weight:normal;font-size:12.0000pt;&#xa;mso-font-kerning:0.0000pt;background:rgb(255,255,255);mso-shading:rgb(255,255,255);&quot;&gt;StartTime&lt;/span&gt;&lt;/p&gt;" style="ellipse;whiteSpace=wrap;html=1;" vertex="1" parent="1">
          <mxGeometry x="772" y="1728" width="108" height="39" as="geometry" />
        </mxCell>
        <mxCell id="vcjG7mU_yD_2sY2w4m83-220" style="edgeStyle=orthogonalEdgeStyle;rounded=0;orthogonalLoop=1;jettySize=auto;html=1;exitX=1;exitY=0.5;exitDx=0;exitDy=0;entryX=0.25;entryY=1;entryDx=0;entryDy=0;endArrow=none;endFill=0;" edge="1" parent="1" source="vcjG7mU_yD_2sY2w4m83-213" target="vcjG7mU_yD_2sY2w4m83-7">
          <mxGeometry relative="1" as="geometry" />
        </mxCell>
        <mxCell id="vcjG7mU_yD_2sY2w4m83-213" value="&lt;p class=&quot;MsoNormal&quot;&gt;&lt;span style=&quot;mso-spacerun:&#39;yes&#39;;font-family:&#39;Times New Roman&#39;;mso-fareast-font-family:Consolas;&#xa;color:rgb(0,0,0);font-weight:normal;font-size:12.0000pt;&#xa;mso-font-kerning:0.0000pt;background:rgb(255,255,255);mso-shading:rgb(255,255,255);&quot;&gt;EndTime&lt;/span&gt;&lt;/p&gt;" style="ellipse;whiteSpace=wrap;html=1;" vertex="1" parent="1">
          <mxGeometry x="831" y="1783" width="90" height="31" as="geometry" />
        </mxCell>
        <mxCell id="vcjG7mU_yD_2sY2w4m83-221" style="edgeStyle=orthogonalEdgeStyle;rounded=0;orthogonalLoop=1;jettySize=auto;html=1;exitX=1;exitY=0;exitDx=0;exitDy=0;entryX=0.5;entryY=1;entryDx=0;entryDy=0;endArrow=none;endFill=0;" edge="1" parent="1" source="vcjG7mU_yD_2sY2w4m83-214" target="vcjG7mU_yD_2sY2w4m83-7">
          <mxGeometry relative="1" as="geometry">
            <Array as="points">
              <mxPoint x="1015" y="1823" />
              <mxPoint x="1054" y="1823" />
              <mxPoint x="1054" y="1811" />
              <mxPoint x="1053" y="1811" />
            </Array>
          </mxGeometry>
        </mxCell>
        <mxCell id="vcjG7mU_yD_2sY2w4m83-214" value="&lt;p class=&quot;MsoNormal&quot;&gt;&lt;span style=&quot;mso-spacerun:&#39;yes&#39;;font-family:&#39;Times New Roman&#39;;mso-fareast-font-family:Consolas;&#xa;color:rgb(0,0,0);font-weight:normal;font-size:12.0000pt;&#xa;mso-font-kerning:0.0000pt;background:rgb(255,255,255);mso-shading:rgb(255,255,255);&quot;&gt;RoomName&lt;/span&gt;&lt;/p&gt;" style="ellipse;whiteSpace=wrap;html=1;" vertex="1" parent="1">
          <mxGeometry x="915" y="1828" width="117" height="38" as="geometry" />
        </mxCell>
        <mxCell id="vcjG7mU_yD_2sY2w4m83-222" style="edgeStyle=orthogonalEdgeStyle;rounded=0;orthogonalLoop=1;jettySize=auto;html=1;exitX=0.5;exitY=0;exitDx=0;exitDy=0;entryX=0.75;entryY=1;entryDx=0;entryDy=0;endArrow=none;endFill=0;" edge="1" parent="1" source="vcjG7mU_yD_2sY2w4m83-215" target="vcjG7mU_yD_2sY2w4m83-7">
          <mxGeometry relative="1" as="geometry" />
        </mxCell>
        <mxCell id="vcjG7mU_yD_2sY2w4m83-215" value="&lt;p style=&quot;mso-pagination:widow-orphan;text-align:left;line-height:150%;&#xa;background:rgb(255,255,255);&quot; class=&quot;MsoNormal&quot;&gt;&lt;span style=&quot;mso-spacerun:&#39;yes&#39;;font-family:&#39;Times New Roman&#39;;mso-fareast-font-family:Consolas;&#xa;color:rgb(0,0,0);font-weight:normal;font-size:12.0000pt;&#xa;mso-font-kerning:0.0000pt;background:rgb(255,255,255);mso-shading:rgb(255,255,255);&quot;&gt;Note&lt;/span&gt;&lt;span style=&quot;mso-spacerun:&#39;yes&#39;;font-family:&#39;Times New Roman&#39;;mso-fareast-font-family:Consolas;&#xa;color:rgb(0,0,0);font-weight:normal;font-size:12.0000pt;&#xa;mso-font-kerning:0.0000pt;background:rgb(255,255,255);mso-shading:rgb(255,255,255);&quot;&gt;&lt;/span&gt;&lt;/p&gt;" style="ellipse;whiteSpace=wrap;html=1;" vertex="1" parent="1">
          <mxGeometry x="1043" y="1829" width="74" height="37" as="geometry" />
        </mxCell>
      </root>
    </mxGraphModel>
  </diagram>
</mxfile>
